%TF.GenerationSoftware,KiCad,Pcbnew,9.0.5*%
%TF.CreationDate,2025-10-04T12:42:16+02:00*%
%TF.ProjectId,elastick_adapter,656c6173-7469-4636-9b5f-616461707465,rev?*%
%TF.SameCoordinates,Original*%
%TF.FileFunction,Soldermask,Bot*%
%TF.FilePolarity,Negative*%
%FSLAX46Y46*%
G04 Gerber Fmt 4.6, Leading zero omitted, Abs format (unit mm)*
G04 Created by KiCad (PCBNEW 9.0.5) date 2025-10-04 12:42:16*
%MOMM*%
%LPD*%
G01*
G04 APERTURE LIST*
G04 Aperture macros list*
%AMRoundRect*
0 Rectangle with rounded corners*
0 $1 Rounding radius*
0 $2 $3 $4 $5 $6 $7 $8 $9 X,Y pos of 4 corners*
0 Add a 4 corners polygon primitive as box body*
4,1,4,$2,$3,$4,$5,$6,$7,$8,$9,$2,$3,0*
0 Add four circle primitives for the rounded corners*
1,1,$1+$1,$2,$3*
1,1,$1+$1,$4,$5*
1,1,$1+$1,$6,$7*
1,1,$1+$1,$8,$9*
0 Add four rect primitives between the rounded corners*
20,1,$1+$1,$2,$3,$4,$5,0*
20,1,$1+$1,$4,$5,$6,$7,0*
20,1,$1+$1,$6,$7,$8,$9,0*
20,1,$1+$1,$8,$9,$2,$3,0*%
G04 Aperture macros list end*
%ADD10C,3.200000*%
%ADD11C,2.200000*%
%ADD12C,1.800000*%
%ADD13C,3.500000*%
%ADD14C,1.600000*%
%ADD15C,6.000000*%
%ADD16C,4.000000*%
%ADD17R,1.600000X1.600000*%
%ADD18RoundRect,0.250000X-0.550000X-0.550000X0.550000X-0.550000X0.550000X0.550000X-0.550000X0.550000X0*%
%ADD19C,2.000000*%
%ADD20R,2.000000X2.000000*%
%ADD21R,3.200000X2.000000*%
%ADD22O,3.500000X2.200000*%
%ADD23R,2.500000X1.500000*%
%ADD24O,2.500000X1.500000*%
G04 APERTURE END LIST*
D10*
%TO.C,J2*%
X117380000Y-158640000D03*
D11*
X125730000Y-158640000D03*
D10*
X134080000Y-158640000D03*
D12*
X119380000Y-149840000D03*
X121920000Y-149840000D03*
X124460000Y-149840000D03*
X127000000Y-149840000D03*
X129540000Y-149840000D03*
X132080000Y-149840000D03*
%TD*%
D13*
%TO.C,REF\u002A\u002A*%
X165735000Y-156210000D03*
%TD*%
%TO.C,REF\u002A\u002A*%
X165735000Y-66040000D03*
%TD*%
D14*
%TO.C,C4*%
X107990000Y-100330000D03*
X112990000Y-100330000D03*
%TD*%
%TO.C,C3*%
X107990000Y-93980000D03*
X112990000Y-93980000D03*
%TD*%
D15*
%TO.C,BAT_CABLE*%
X110490000Y-144145000D03*
%TD*%
D13*
%TO.C,REF\u002A\u002A*%
X154940000Y-105410000D03*
%TD*%
%TO.C,REF\u002A\u002A*%
X116840000Y-82550000D03*
%TD*%
%TO.C,REF\u002A\u002A*%
X109220000Y-66040000D03*
%TD*%
%TO.C,REF\u002A\u002A*%
X109220000Y-156210000D03*
%TD*%
D16*
%TO.C,J1*%
X150930000Y-70675331D03*
X125930000Y-70675331D03*
D17*
X143970000Y-72095331D03*
D14*
X141200000Y-72095331D03*
X138430000Y-72095331D03*
X135660000Y-72095331D03*
X132890000Y-72095331D03*
X142585000Y-69255331D03*
X139815000Y-69255331D03*
X137045000Y-69255331D03*
X134275000Y-69255331D03*
%TD*%
D13*
%TO.C,REF\u002A\u002A*%
X154940000Y-82550000D03*
%TD*%
%TO.C,REF\u002A\u002A*%
X116840000Y-105410000D03*
%TD*%
D12*
%TO.C,U1*%
X127125000Y-94135662D03*
X127125000Y-96675662D03*
X127125000Y-99215662D03*
X127125000Y-101755662D03*
X127125000Y-104295662D03*
X127125000Y-106835662D03*
X127125000Y-109375662D03*
X127125000Y-111915662D03*
X127125000Y-114455662D03*
X127125000Y-116995662D03*
X127125000Y-119535662D03*
X127125000Y-122075662D03*
X127125000Y-124615662D03*
X127125000Y-127155662D03*
X127125000Y-129695662D03*
X127125000Y-132235662D03*
X149985000Y-94135662D03*
X149985000Y-96675662D03*
X149985000Y-99215662D03*
X149985000Y-101755662D03*
X149985000Y-104295662D03*
X149985000Y-106835662D03*
X149985000Y-109375662D03*
X149985000Y-111915662D03*
X149985000Y-114455662D03*
X149985000Y-116995662D03*
X149985000Y-119535662D03*
X149985000Y-122075662D03*
X149985000Y-124615662D03*
X149985000Y-127155662D03*
X149985000Y-129695662D03*
X149985000Y-132235662D03*
%TD*%
D18*
%TO.C,C1*%
X114300000Y-68580000D03*
D14*
X117800000Y-68580000D03*
%TD*%
%TO.C,C2*%
X115530000Y-87630000D03*
X110530000Y-87630000D03*
%TD*%
D11*
%TO.C,DS1*%
X115740000Y-114930000D03*
D19*
X115740000Y-138430000D03*
D11*
X130990000Y-114930000D03*
X142240000Y-114930000D03*
D19*
X142240000Y-138430000D03*
D12*
X125180000Y-138180000D03*
X127720000Y-138180000D03*
X130260000Y-138180000D03*
X132800000Y-138180000D03*
%TD*%
D20*
%TO.C,SW2*%
X168000000Y-126550000D03*
D19*
X168000000Y-131550000D03*
X168000000Y-129050000D03*
D21*
X160500000Y-134650000D03*
X160500000Y-123450000D03*
D19*
X153500000Y-131550000D03*
X153500000Y-126550000D03*
%TD*%
D22*
%TO.C,SW1*%
X110760000Y-135550000D03*
X110760000Y-122550000D03*
D23*
X111760000Y-132050000D03*
D24*
X111760000Y-129050000D03*
X111760000Y-126050000D03*
%TD*%
M02*
