%TF.GenerationSoftware,KiCad,Pcbnew,9.0.5*%
%TF.CreationDate,2025-10-04T12:42:16+02:00*%
%TF.ProjectId,elastick_adapter,656c6173-7469-4636-9b5f-616461707465,rev?*%
%TF.SameCoordinates,Original*%
%TF.FileFunction,Legend,Top*%
%TF.FilePolarity,Positive*%
%FSLAX46Y46*%
G04 Gerber Fmt 4.6, Leading zero omitted, Abs format (unit mm)*
G04 Created by KiCad (PCBNEW 9.0.5) date 2025-10-04 12:42:16*
%MOMM*%
%LPD*%
G01*
G04 APERTURE LIST*
%ADD10C,0.200000*%
%ADD11C,0.100000*%
%ADD12C,0.150000*%
%ADD13C,0.120000*%
G04 APERTURE END LIST*
D10*
X145749047Y-151007443D02*
X146415714Y-151007443D01*
X146701428Y-152055062D02*
X145749047Y-152055062D01*
X145749047Y-152055062D02*
X145749047Y-150055062D01*
X145749047Y-150055062D02*
X146701428Y-150055062D01*
X147844285Y-152055062D02*
X147653809Y-151959824D01*
X147653809Y-151959824D02*
X147558571Y-151769347D01*
X147558571Y-151769347D02*
X147558571Y-150055062D01*
X149463333Y-152055062D02*
X149463333Y-151007443D01*
X149463333Y-151007443D02*
X149368095Y-150816966D01*
X149368095Y-150816966D02*
X149177619Y-150721728D01*
X149177619Y-150721728D02*
X148796666Y-150721728D01*
X148796666Y-150721728D02*
X148606190Y-150816966D01*
X149463333Y-151959824D02*
X149272857Y-152055062D01*
X149272857Y-152055062D02*
X148796666Y-152055062D01*
X148796666Y-152055062D02*
X148606190Y-151959824D01*
X148606190Y-151959824D02*
X148510952Y-151769347D01*
X148510952Y-151769347D02*
X148510952Y-151578871D01*
X148510952Y-151578871D02*
X148606190Y-151388395D01*
X148606190Y-151388395D02*
X148796666Y-151293157D01*
X148796666Y-151293157D02*
X149272857Y-151293157D01*
X149272857Y-151293157D02*
X149463333Y-151197919D01*
X150320476Y-151959824D02*
X150510952Y-152055062D01*
X150510952Y-152055062D02*
X150891904Y-152055062D01*
X150891904Y-152055062D02*
X151082381Y-151959824D01*
X151082381Y-151959824D02*
X151177619Y-151769347D01*
X151177619Y-151769347D02*
X151177619Y-151674109D01*
X151177619Y-151674109D02*
X151082381Y-151483633D01*
X151082381Y-151483633D02*
X150891904Y-151388395D01*
X150891904Y-151388395D02*
X150606190Y-151388395D01*
X150606190Y-151388395D02*
X150415714Y-151293157D01*
X150415714Y-151293157D02*
X150320476Y-151102681D01*
X150320476Y-151102681D02*
X150320476Y-151007443D01*
X150320476Y-151007443D02*
X150415714Y-150816966D01*
X150415714Y-150816966D02*
X150606190Y-150721728D01*
X150606190Y-150721728D02*
X150891904Y-150721728D01*
X150891904Y-150721728D02*
X151082381Y-150816966D01*
X151749048Y-150721728D02*
X152510952Y-150721728D01*
X152034762Y-150055062D02*
X152034762Y-151769347D01*
X152034762Y-151769347D02*
X152130000Y-151959824D01*
X152130000Y-151959824D02*
X152320476Y-152055062D01*
X152320476Y-152055062D02*
X152510952Y-152055062D01*
X153177619Y-152055062D02*
X153177619Y-150721728D01*
X153177619Y-150055062D02*
X153082381Y-150150300D01*
X153082381Y-150150300D02*
X153177619Y-150245538D01*
X153177619Y-150245538D02*
X153272857Y-150150300D01*
X153272857Y-150150300D02*
X153177619Y-150055062D01*
X153177619Y-150055062D02*
X153177619Y-150245538D01*
X154987143Y-151959824D02*
X154796667Y-152055062D01*
X154796667Y-152055062D02*
X154415714Y-152055062D01*
X154415714Y-152055062D02*
X154225238Y-151959824D01*
X154225238Y-151959824D02*
X154130000Y-151864585D01*
X154130000Y-151864585D02*
X154034762Y-151674109D01*
X154034762Y-151674109D02*
X154034762Y-151102681D01*
X154034762Y-151102681D02*
X154130000Y-150912204D01*
X154130000Y-150912204D02*
X154225238Y-150816966D01*
X154225238Y-150816966D02*
X154415714Y-150721728D01*
X154415714Y-150721728D02*
X154796667Y-150721728D01*
X154796667Y-150721728D02*
X154987143Y-150816966D01*
X155844286Y-152055062D02*
X155844286Y-150055062D01*
X156034762Y-151293157D02*
X156606191Y-152055062D01*
X156606191Y-150721728D02*
X155844286Y-151483633D01*
X145891904Y-154703521D02*
X146844285Y-154703521D01*
X145701428Y-155274950D02*
X146368094Y-153274950D01*
X146368094Y-153274950D02*
X147034761Y-155274950D01*
X148558571Y-155274950D02*
X148558571Y-153274950D01*
X148558571Y-155179712D02*
X148368095Y-155274950D01*
X148368095Y-155274950D02*
X147987142Y-155274950D01*
X147987142Y-155274950D02*
X147796666Y-155179712D01*
X147796666Y-155179712D02*
X147701428Y-155084473D01*
X147701428Y-155084473D02*
X147606190Y-154893997D01*
X147606190Y-154893997D02*
X147606190Y-154322569D01*
X147606190Y-154322569D02*
X147701428Y-154132092D01*
X147701428Y-154132092D02*
X147796666Y-154036854D01*
X147796666Y-154036854D02*
X147987142Y-153941616D01*
X147987142Y-153941616D02*
X148368095Y-153941616D01*
X148368095Y-153941616D02*
X148558571Y-154036854D01*
X150368095Y-155274950D02*
X150368095Y-154227331D01*
X150368095Y-154227331D02*
X150272857Y-154036854D01*
X150272857Y-154036854D02*
X150082381Y-153941616D01*
X150082381Y-153941616D02*
X149701428Y-153941616D01*
X149701428Y-153941616D02*
X149510952Y-154036854D01*
X150368095Y-155179712D02*
X150177619Y-155274950D01*
X150177619Y-155274950D02*
X149701428Y-155274950D01*
X149701428Y-155274950D02*
X149510952Y-155179712D01*
X149510952Y-155179712D02*
X149415714Y-154989235D01*
X149415714Y-154989235D02*
X149415714Y-154798759D01*
X149415714Y-154798759D02*
X149510952Y-154608283D01*
X149510952Y-154608283D02*
X149701428Y-154513045D01*
X149701428Y-154513045D02*
X150177619Y-154513045D01*
X150177619Y-154513045D02*
X150368095Y-154417807D01*
X151320476Y-153941616D02*
X151320476Y-155941616D01*
X151320476Y-154036854D02*
X151510952Y-153941616D01*
X151510952Y-153941616D02*
X151891905Y-153941616D01*
X151891905Y-153941616D02*
X152082381Y-154036854D01*
X152082381Y-154036854D02*
X152177619Y-154132092D01*
X152177619Y-154132092D02*
X152272857Y-154322569D01*
X152272857Y-154322569D02*
X152272857Y-154893997D01*
X152272857Y-154893997D02*
X152177619Y-155084473D01*
X152177619Y-155084473D02*
X152082381Y-155179712D01*
X152082381Y-155179712D02*
X151891905Y-155274950D01*
X151891905Y-155274950D02*
X151510952Y-155274950D01*
X151510952Y-155274950D02*
X151320476Y-155179712D01*
X152844286Y-153941616D02*
X153606190Y-153941616D01*
X153130000Y-153274950D02*
X153130000Y-154989235D01*
X153130000Y-154989235D02*
X153225238Y-155179712D01*
X153225238Y-155179712D02*
X153415714Y-155274950D01*
X153415714Y-155274950D02*
X153606190Y-155274950D01*
X155034762Y-155179712D02*
X154844286Y-155274950D01*
X154844286Y-155274950D02*
X154463333Y-155274950D01*
X154463333Y-155274950D02*
X154272857Y-155179712D01*
X154272857Y-155179712D02*
X154177619Y-154989235D01*
X154177619Y-154989235D02*
X154177619Y-154227331D01*
X154177619Y-154227331D02*
X154272857Y-154036854D01*
X154272857Y-154036854D02*
X154463333Y-153941616D01*
X154463333Y-153941616D02*
X154844286Y-153941616D01*
X154844286Y-153941616D02*
X155034762Y-154036854D01*
X155034762Y-154036854D02*
X155130000Y-154227331D01*
X155130000Y-154227331D02*
X155130000Y-154417807D01*
X155130000Y-154417807D02*
X154177619Y-154608283D01*
X155987143Y-155274950D02*
X155987143Y-153941616D01*
X155987143Y-154322569D02*
X156082381Y-154132092D01*
X156082381Y-154132092D02*
X156177619Y-154036854D01*
X156177619Y-154036854D02*
X156368095Y-153941616D01*
X156368095Y-153941616D02*
X156558572Y-153941616D01*
X148844285Y-158494838D02*
X147701428Y-158494838D01*
X148272856Y-158494838D02*
X148272856Y-156494838D01*
X148272856Y-156494838D02*
X148082380Y-156780552D01*
X148082380Y-156780552D02*
X147891904Y-156971028D01*
X147891904Y-156971028D02*
X147701428Y-157066266D01*
X149701428Y-158304361D02*
X149796666Y-158399600D01*
X149796666Y-158399600D02*
X149701428Y-158494838D01*
X149701428Y-158494838D02*
X149606190Y-158399600D01*
X149606190Y-158399600D02*
X149701428Y-158304361D01*
X149701428Y-158304361D02*
X149701428Y-158494838D01*
X151034761Y-156494838D02*
X151225238Y-156494838D01*
X151225238Y-156494838D02*
X151415714Y-156590076D01*
X151415714Y-156590076D02*
X151510952Y-156685314D01*
X151510952Y-156685314D02*
X151606190Y-156875790D01*
X151606190Y-156875790D02*
X151701428Y-157256742D01*
X151701428Y-157256742D02*
X151701428Y-157732933D01*
X151701428Y-157732933D02*
X151606190Y-158113885D01*
X151606190Y-158113885D02*
X151510952Y-158304361D01*
X151510952Y-158304361D02*
X151415714Y-158399600D01*
X151415714Y-158399600D02*
X151225238Y-158494838D01*
X151225238Y-158494838D02*
X151034761Y-158494838D01*
X151034761Y-158494838D02*
X150844285Y-158399600D01*
X150844285Y-158399600D02*
X150749047Y-158304361D01*
X150749047Y-158304361D02*
X150653809Y-158113885D01*
X150653809Y-158113885D02*
X150558571Y-157732933D01*
X150558571Y-157732933D02*
X150558571Y-157256742D01*
X150558571Y-157256742D02*
X150653809Y-156875790D01*
X150653809Y-156875790D02*
X150749047Y-156685314D01*
X150749047Y-156685314D02*
X150844285Y-156590076D01*
X150844285Y-156590076D02*
X151034761Y-156494838D01*
X152558571Y-158304361D02*
X152653809Y-158399600D01*
X152653809Y-158399600D02*
X152558571Y-158494838D01*
X152558571Y-158494838D02*
X152463333Y-158399600D01*
X152463333Y-158399600D02*
X152558571Y-158304361D01*
X152558571Y-158304361D02*
X152558571Y-158494838D01*
X153891904Y-156494838D02*
X154082381Y-156494838D01*
X154082381Y-156494838D02*
X154272857Y-156590076D01*
X154272857Y-156590076D02*
X154368095Y-156685314D01*
X154368095Y-156685314D02*
X154463333Y-156875790D01*
X154463333Y-156875790D02*
X154558571Y-157256742D01*
X154558571Y-157256742D02*
X154558571Y-157732933D01*
X154558571Y-157732933D02*
X154463333Y-158113885D01*
X154463333Y-158113885D02*
X154368095Y-158304361D01*
X154368095Y-158304361D02*
X154272857Y-158399600D01*
X154272857Y-158399600D02*
X154082381Y-158494838D01*
X154082381Y-158494838D02*
X153891904Y-158494838D01*
X153891904Y-158494838D02*
X153701428Y-158399600D01*
X153701428Y-158399600D02*
X153606190Y-158304361D01*
X153606190Y-158304361D02*
X153510952Y-158113885D01*
X153510952Y-158113885D02*
X153415714Y-157732933D01*
X153415714Y-157732933D02*
X153415714Y-157256742D01*
X153415714Y-157256742D02*
X153510952Y-156875790D01*
X153510952Y-156875790D02*
X153606190Y-156685314D01*
X153606190Y-156685314D02*
X153701428Y-156590076D01*
X153701428Y-156590076D02*
X153891904Y-156494838D01*
D11*
X123410714Y-81899942D02*
X123639286Y-81899942D01*
X123639286Y-81899942D02*
X123753571Y-81957085D01*
X123753571Y-81957085D02*
X123867857Y-82071371D01*
X123867857Y-82071371D02*
X123925000Y-82299942D01*
X123925000Y-82299942D02*
X123925000Y-82699942D01*
X123925000Y-82699942D02*
X123867857Y-82928514D01*
X123867857Y-82928514D02*
X123753571Y-83042800D01*
X123753571Y-83042800D02*
X123639286Y-83099942D01*
X123639286Y-83099942D02*
X123410714Y-83099942D01*
X123410714Y-83099942D02*
X123296429Y-83042800D01*
X123296429Y-83042800D02*
X123182143Y-82928514D01*
X123182143Y-82928514D02*
X123125000Y-82699942D01*
X123125000Y-82699942D02*
X123125000Y-82299942D01*
X123125000Y-82299942D02*
X123182143Y-82071371D01*
X123182143Y-82071371D02*
X123296429Y-81957085D01*
X123296429Y-81957085D02*
X123410714Y-81899942D01*
X124439286Y-82299942D02*
X124439286Y-83099942D01*
X124439286Y-82414228D02*
X124496429Y-82357085D01*
X124496429Y-82357085D02*
X124610714Y-82299942D01*
X124610714Y-82299942D02*
X124782143Y-82299942D01*
X124782143Y-82299942D02*
X124896429Y-82357085D01*
X124896429Y-82357085D02*
X124953572Y-82471371D01*
X124953572Y-82471371D02*
X124953572Y-83099942D01*
X125696428Y-83099942D02*
X125582143Y-83042800D01*
X125582143Y-83042800D02*
X125525000Y-82928514D01*
X125525000Y-82928514D02*
X125525000Y-81899942D01*
X126039285Y-82299942D02*
X126324999Y-83099942D01*
X126610714Y-82299942D02*
X126324999Y-83099942D01*
X126324999Y-83099942D02*
X126210714Y-83385657D01*
X126210714Y-83385657D02*
X126153571Y-83442800D01*
X126153571Y-83442800D02*
X126039285Y-83499942D01*
X127925000Y-82757085D02*
X128496429Y-82757085D01*
X127810714Y-83099942D02*
X128210714Y-81899942D01*
X128210714Y-81899942D02*
X128610714Y-83099942D01*
X129010714Y-83099942D02*
X129010714Y-82299942D01*
X129010714Y-82414228D02*
X129067857Y-82357085D01*
X129067857Y-82357085D02*
X129182142Y-82299942D01*
X129182142Y-82299942D02*
X129353571Y-82299942D01*
X129353571Y-82299942D02*
X129467857Y-82357085D01*
X129467857Y-82357085D02*
X129525000Y-82471371D01*
X129525000Y-82471371D02*
X129525000Y-83099942D01*
X129525000Y-82471371D02*
X129582142Y-82357085D01*
X129582142Y-82357085D02*
X129696428Y-82299942D01*
X129696428Y-82299942D02*
X129867857Y-82299942D01*
X129867857Y-82299942D02*
X129982142Y-82357085D01*
X129982142Y-82357085D02*
X130039285Y-82471371D01*
X130039285Y-82471371D02*
X130039285Y-83099942D01*
X130610714Y-83099942D02*
X130610714Y-82299942D01*
X130610714Y-81899942D02*
X130553571Y-81957085D01*
X130553571Y-81957085D02*
X130610714Y-82014228D01*
X130610714Y-82014228D02*
X130667857Y-81957085D01*
X130667857Y-81957085D02*
X130610714Y-81899942D01*
X130610714Y-81899942D02*
X130610714Y-82014228D01*
X131696429Y-82299942D02*
X131696429Y-83271371D01*
X131696429Y-83271371D02*
X131639286Y-83385657D01*
X131639286Y-83385657D02*
X131582143Y-83442800D01*
X131582143Y-83442800D02*
X131467857Y-83499942D01*
X131467857Y-83499942D02*
X131296429Y-83499942D01*
X131296429Y-83499942D02*
X131182143Y-83442800D01*
X131696429Y-83042800D02*
X131582143Y-83099942D01*
X131582143Y-83099942D02*
X131353571Y-83099942D01*
X131353571Y-83099942D02*
X131239286Y-83042800D01*
X131239286Y-83042800D02*
X131182143Y-82985657D01*
X131182143Y-82985657D02*
X131125000Y-82871371D01*
X131125000Y-82871371D02*
X131125000Y-82528514D01*
X131125000Y-82528514D02*
X131182143Y-82414228D01*
X131182143Y-82414228D02*
X131239286Y-82357085D01*
X131239286Y-82357085D02*
X131353571Y-82299942D01*
X131353571Y-82299942D02*
X131582143Y-82299942D01*
X131582143Y-82299942D02*
X131696429Y-82357085D01*
X132782143Y-83099942D02*
X132782143Y-82471371D01*
X132782143Y-82471371D02*
X132725000Y-82357085D01*
X132725000Y-82357085D02*
X132610714Y-82299942D01*
X132610714Y-82299942D02*
X132382143Y-82299942D01*
X132382143Y-82299942D02*
X132267857Y-82357085D01*
X132782143Y-83042800D02*
X132667857Y-83099942D01*
X132667857Y-83099942D02*
X132382143Y-83099942D01*
X132382143Y-83099942D02*
X132267857Y-83042800D01*
X132267857Y-83042800D02*
X132210714Y-82928514D01*
X132210714Y-82928514D02*
X132210714Y-82814228D01*
X132210714Y-82814228D02*
X132267857Y-82699942D01*
X132267857Y-82699942D02*
X132382143Y-82642800D01*
X132382143Y-82642800D02*
X132667857Y-82642800D01*
X132667857Y-82642800D02*
X132782143Y-82585657D01*
X134267857Y-83099942D02*
X134267857Y-82299942D01*
X134267857Y-82414228D02*
X134325000Y-82357085D01*
X134325000Y-82357085D02*
X134439285Y-82299942D01*
X134439285Y-82299942D02*
X134610714Y-82299942D01*
X134610714Y-82299942D02*
X134725000Y-82357085D01*
X134725000Y-82357085D02*
X134782143Y-82471371D01*
X134782143Y-82471371D02*
X134782143Y-83099942D01*
X134782143Y-82471371D02*
X134839285Y-82357085D01*
X134839285Y-82357085D02*
X134953571Y-82299942D01*
X134953571Y-82299942D02*
X135125000Y-82299942D01*
X135125000Y-82299942D02*
X135239285Y-82357085D01*
X135239285Y-82357085D02*
X135296428Y-82471371D01*
X135296428Y-82471371D02*
X135296428Y-83099942D01*
X136382143Y-83099942D02*
X136382143Y-82471371D01*
X136382143Y-82471371D02*
X136325000Y-82357085D01*
X136325000Y-82357085D02*
X136210714Y-82299942D01*
X136210714Y-82299942D02*
X135982143Y-82299942D01*
X135982143Y-82299942D02*
X135867857Y-82357085D01*
X136382143Y-83042800D02*
X136267857Y-83099942D01*
X136267857Y-83099942D02*
X135982143Y-83099942D01*
X135982143Y-83099942D02*
X135867857Y-83042800D01*
X135867857Y-83042800D02*
X135810714Y-82928514D01*
X135810714Y-82928514D02*
X135810714Y-82814228D01*
X135810714Y-82814228D02*
X135867857Y-82699942D01*
X135867857Y-82699942D02*
X135982143Y-82642800D01*
X135982143Y-82642800D02*
X136267857Y-82642800D01*
X136267857Y-82642800D02*
X136382143Y-82585657D01*
X136953571Y-83099942D02*
X136953571Y-81899942D01*
X137067857Y-82642800D02*
X137410714Y-83099942D01*
X137410714Y-82299942D02*
X136953571Y-82757085D01*
X138382143Y-83042800D02*
X138267857Y-83099942D01*
X138267857Y-83099942D02*
X138039286Y-83099942D01*
X138039286Y-83099942D02*
X137925000Y-83042800D01*
X137925000Y-83042800D02*
X137867857Y-82928514D01*
X137867857Y-82928514D02*
X137867857Y-82471371D01*
X137867857Y-82471371D02*
X137925000Y-82357085D01*
X137925000Y-82357085D02*
X138039286Y-82299942D01*
X138039286Y-82299942D02*
X138267857Y-82299942D01*
X138267857Y-82299942D02*
X138382143Y-82357085D01*
X138382143Y-82357085D02*
X138439286Y-82471371D01*
X138439286Y-82471371D02*
X138439286Y-82585657D01*
X138439286Y-82585657D02*
X137867857Y-82699942D01*
X138896428Y-83042800D02*
X139010714Y-83099942D01*
X139010714Y-83099942D02*
X139239285Y-83099942D01*
X139239285Y-83099942D02*
X139353571Y-83042800D01*
X139353571Y-83042800D02*
X139410714Y-82928514D01*
X139410714Y-82928514D02*
X139410714Y-82871371D01*
X139410714Y-82871371D02*
X139353571Y-82757085D01*
X139353571Y-82757085D02*
X139239285Y-82699942D01*
X139239285Y-82699942D02*
X139067857Y-82699942D01*
X139067857Y-82699942D02*
X138953571Y-82642800D01*
X138953571Y-82642800D02*
X138896428Y-82528514D01*
X138896428Y-82528514D02*
X138896428Y-82471371D01*
X138896428Y-82471371D02*
X138953571Y-82357085D01*
X138953571Y-82357085D02*
X139067857Y-82299942D01*
X139067857Y-82299942D02*
X139239285Y-82299942D01*
X139239285Y-82299942D02*
X139353571Y-82357085D01*
X140839286Y-83099942D02*
X140839286Y-82299942D01*
X140839286Y-81899942D02*
X140782143Y-81957085D01*
X140782143Y-81957085D02*
X140839286Y-82014228D01*
X140839286Y-82014228D02*
X140896429Y-81957085D01*
X140896429Y-81957085D02*
X140839286Y-81899942D01*
X140839286Y-81899942D02*
X140839286Y-82014228D01*
X141239286Y-82299942D02*
X141696429Y-82299942D01*
X141410715Y-81899942D02*
X141410715Y-82928514D01*
X141410715Y-82928514D02*
X141467858Y-83042800D01*
X141467858Y-83042800D02*
X141582143Y-83099942D01*
X141582143Y-83099942D02*
X141696429Y-83099942D01*
X143010715Y-82299942D02*
X143010715Y-83499942D01*
X143010715Y-82357085D02*
X143125001Y-82299942D01*
X143125001Y-82299942D02*
X143353572Y-82299942D01*
X143353572Y-82299942D02*
X143467858Y-82357085D01*
X143467858Y-82357085D02*
X143525001Y-82414228D01*
X143525001Y-82414228D02*
X143582143Y-82528514D01*
X143582143Y-82528514D02*
X143582143Y-82871371D01*
X143582143Y-82871371D02*
X143525001Y-82985657D01*
X143525001Y-82985657D02*
X143467858Y-83042800D01*
X143467858Y-83042800D02*
X143353572Y-83099942D01*
X143353572Y-83099942D02*
X143125001Y-83099942D01*
X143125001Y-83099942D02*
X143010715Y-83042800D01*
X144267857Y-83099942D02*
X144153572Y-83042800D01*
X144153572Y-83042800D02*
X144096429Y-82985657D01*
X144096429Y-82985657D02*
X144039286Y-82871371D01*
X144039286Y-82871371D02*
X144039286Y-82528514D01*
X144039286Y-82528514D02*
X144096429Y-82414228D01*
X144096429Y-82414228D02*
X144153572Y-82357085D01*
X144153572Y-82357085D02*
X144267857Y-82299942D01*
X144267857Y-82299942D02*
X144439286Y-82299942D01*
X144439286Y-82299942D02*
X144553572Y-82357085D01*
X144553572Y-82357085D02*
X144610715Y-82414228D01*
X144610715Y-82414228D02*
X144667857Y-82528514D01*
X144667857Y-82528514D02*
X144667857Y-82871371D01*
X144667857Y-82871371D02*
X144610715Y-82985657D01*
X144610715Y-82985657D02*
X144553572Y-83042800D01*
X144553572Y-83042800D02*
X144439286Y-83099942D01*
X144439286Y-83099942D02*
X144267857Y-83099942D01*
X145125000Y-83042800D02*
X145239286Y-83099942D01*
X145239286Y-83099942D02*
X145467857Y-83099942D01*
X145467857Y-83099942D02*
X145582143Y-83042800D01*
X145582143Y-83042800D02*
X145639286Y-82928514D01*
X145639286Y-82928514D02*
X145639286Y-82871371D01*
X145639286Y-82871371D02*
X145582143Y-82757085D01*
X145582143Y-82757085D02*
X145467857Y-82699942D01*
X145467857Y-82699942D02*
X145296429Y-82699942D01*
X145296429Y-82699942D02*
X145182143Y-82642800D01*
X145182143Y-82642800D02*
X145125000Y-82528514D01*
X145125000Y-82528514D02*
X145125000Y-82471371D01*
X145125000Y-82471371D02*
X145182143Y-82357085D01*
X145182143Y-82357085D02*
X145296429Y-82299942D01*
X145296429Y-82299942D02*
X145467857Y-82299942D01*
X145467857Y-82299942D02*
X145582143Y-82357085D01*
X146096429Y-83042800D02*
X146210715Y-83099942D01*
X146210715Y-83099942D02*
X146439286Y-83099942D01*
X146439286Y-83099942D02*
X146553572Y-83042800D01*
X146553572Y-83042800D02*
X146610715Y-82928514D01*
X146610715Y-82928514D02*
X146610715Y-82871371D01*
X146610715Y-82871371D02*
X146553572Y-82757085D01*
X146553572Y-82757085D02*
X146439286Y-82699942D01*
X146439286Y-82699942D02*
X146267858Y-82699942D01*
X146267858Y-82699942D02*
X146153572Y-82642800D01*
X146153572Y-82642800D02*
X146096429Y-82528514D01*
X146096429Y-82528514D02*
X146096429Y-82471371D01*
X146096429Y-82471371D02*
X146153572Y-82357085D01*
X146153572Y-82357085D02*
X146267858Y-82299942D01*
X146267858Y-82299942D02*
X146439286Y-82299942D01*
X146439286Y-82299942D02*
X146553572Y-82357085D01*
X147125001Y-83099942D02*
X147125001Y-82299942D01*
X147125001Y-81899942D02*
X147067858Y-81957085D01*
X147067858Y-81957085D02*
X147125001Y-82014228D01*
X147125001Y-82014228D02*
X147182144Y-81957085D01*
X147182144Y-81957085D02*
X147125001Y-81899942D01*
X147125001Y-81899942D02*
X147125001Y-82014228D01*
X147696430Y-83099942D02*
X147696430Y-81899942D01*
X147696430Y-82357085D02*
X147810716Y-82299942D01*
X147810716Y-82299942D02*
X148039287Y-82299942D01*
X148039287Y-82299942D02*
X148153573Y-82357085D01*
X148153573Y-82357085D02*
X148210716Y-82414228D01*
X148210716Y-82414228D02*
X148267858Y-82528514D01*
X148267858Y-82528514D02*
X148267858Y-82871371D01*
X148267858Y-82871371D02*
X148210716Y-82985657D01*
X148210716Y-82985657D02*
X148153573Y-83042800D01*
X148153573Y-83042800D02*
X148039287Y-83099942D01*
X148039287Y-83099942D02*
X147810716Y-83099942D01*
X147810716Y-83099942D02*
X147696430Y-83042800D01*
X148953572Y-83099942D02*
X148839287Y-83042800D01*
X148839287Y-83042800D02*
X148782144Y-82928514D01*
X148782144Y-82928514D02*
X148782144Y-81899942D01*
X149867858Y-83042800D02*
X149753572Y-83099942D01*
X149753572Y-83099942D02*
X149525001Y-83099942D01*
X149525001Y-83099942D02*
X149410715Y-83042800D01*
X149410715Y-83042800D02*
X149353572Y-82928514D01*
X149353572Y-82928514D02*
X149353572Y-82471371D01*
X149353572Y-82471371D02*
X149410715Y-82357085D01*
X149410715Y-82357085D02*
X149525001Y-82299942D01*
X149525001Y-82299942D02*
X149753572Y-82299942D01*
X149753572Y-82299942D02*
X149867858Y-82357085D01*
X149867858Y-82357085D02*
X149925001Y-82471371D01*
X149925001Y-82471371D02*
X149925001Y-82585657D01*
X149925001Y-82585657D02*
X149353572Y-82699942D01*
X131717819Y-151985312D02*
X131670200Y-151937693D01*
X131670200Y-151937693D02*
X131622580Y-151794836D01*
X131622580Y-151794836D02*
X131622580Y-151699598D01*
X131622580Y-151699598D02*
X131670200Y-151556741D01*
X131670200Y-151556741D02*
X131765438Y-151461503D01*
X131765438Y-151461503D02*
X131860676Y-151413884D01*
X131860676Y-151413884D02*
X132051152Y-151366265D01*
X132051152Y-151366265D02*
X132194009Y-151366265D01*
X132194009Y-151366265D02*
X132384485Y-151413884D01*
X132384485Y-151413884D02*
X132479723Y-151461503D01*
X132479723Y-151461503D02*
X132574961Y-151556741D01*
X132574961Y-151556741D02*
X132622580Y-151699598D01*
X132622580Y-151699598D02*
X132622580Y-151794836D01*
X132622580Y-151794836D02*
X132574961Y-151937693D01*
X132574961Y-151937693D02*
X132527342Y-151985312D01*
X131717819Y-152985312D02*
X131670200Y-152937693D01*
X131670200Y-152937693D02*
X131622580Y-152794836D01*
X131622580Y-152794836D02*
X131622580Y-152699598D01*
X131622580Y-152699598D02*
X131670200Y-152556741D01*
X131670200Y-152556741D02*
X131765438Y-152461503D01*
X131765438Y-152461503D02*
X131860676Y-152413884D01*
X131860676Y-152413884D02*
X132051152Y-152366265D01*
X132051152Y-152366265D02*
X132194009Y-152366265D01*
X132194009Y-152366265D02*
X132384485Y-152413884D01*
X132384485Y-152413884D02*
X132479723Y-152461503D01*
X132479723Y-152461503D02*
X132574961Y-152556741D01*
X132574961Y-152556741D02*
X132622580Y-152699598D01*
X132622580Y-152699598D02*
X132622580Y-152794836D01*
X132622580Y-152794836D02*
X132574961Y-152937693D01*
X132574961Y-152937693D02*
X132527342Y-152985312D01*
X132527342Y-153366265D02*
X132574961Y-153413884D01*
X132574961Y-153413884D02*
X132622580Y-153509122D01*
X132622580Y-153509122D02*
X132622580Y-153747217D01*
X132622580Y-153747217D02*
X132574961Y-153842455D01*
X132574961Y-153842455D02*
X132527342Y-153890074D01*
X132527342Y-153890074D02*
X132432104Y-153937693D01*
X132432104Y-153937693D02*
X132336866Y-153937693D01*
X132336866Y-153937693D02*
X132194009Y-153890074D01*
X132194009Y-153890074D02*
X131622580Y-153318646D01*
X131622580Y-153318646D02*
X131622580Y-153937693D01*
X124097819Y-151985312D02*
X124050200Y-151937693D01*
X124050200Y-151937693D02*
X124002580Y-151794836D01*
X124002580Y-151794836D02*
X124002580Y-151699598D01*
X124002580Y-151699598D02*
X124050200Y-151556741D01*
X124050200Y-151556741D02*
X124145438Y-151461503D01*
X124145438Y-151461503D02*
X124240676Y-151413884D01*
X124240676Y-151413884D02*
X124431152Y-151366265D01*
X124431152Y-151366265D02*
X124574009Y-151366265D01*
X124574009Y-151366265D02*
X124764485Y-151413884D01*
X124764485Y-151413884D02*
X124859723Y-151461503D01*
X124859723Y-151461503D02*
X124954961Y-151556741D01*
X124954961Y-151556741D02*
X125002580Y-151699598D01*
X125002580Y-151699598D02*
X125002580Y-151794836D01*
X125002580Y-151794836D02*
X124954961Y-151937693D01*
X124954961Y-151937693D02*
X124907342Y-151985312D01*
X124097819Y-152985312D02*
X124050200Y-152937693D01*
X124050200Y-152937693D02*
X124002580Y-152794836D01*
X124002580Y-152794836D02*
X124002580Y-152699598D01*
X124002580Y-152699598D02*
X124050200Y-152556741D01*
X124050200Y-152556741D02*
X124145438Y-152461503D01*
X124145438Y-152461503D02*
X124240676Y-152413884D01*
X124240676Y-152413884D02*
X124431152Y-152366265D01*
X124431152Y-152366265D02*
X124574009Y-152366265D01*
X124574009Y-152366265D02*
X124764485Y-152413884D01*
X124764485Y-152413884D02*
X124859723Y-152461503D01*
X124859723Y-152461503D02*
X124954961Y-152556741D01*
X124954961Y-152556741D02*
X125002580Y-152699598D01*
X125002580Y-152699598D02*
X125002580Y-152794836D01*
X125002580Y-152794836D02*
X124954961Y-152937693D01*
X124954961Y-152937693D02*
X124907342Y-152985312D01*
X124002580Y-153937693D02*
X124002580Y-153366265D01*
X124002580Y-153651979D02*
X125002580Y-153651979D01*
X125002580Y-153651979D02*
X124859723Y-153556741D01*
X124859723Y-153556741D02*
X124764485Y-153461503D01*
X124764485Y-153461503D02*
X124716866Y-153366265D01*
X126542580Y-151413884D02*
X127542580Y-151413884D01*
X127542580Y-151413884D02*
X127542580Y-151651979D01*
X127542580Y-151651979D02*
X127494961Y-151794836D01*
X127494961Y-151794836D02*
X127399723Y-151890074D01*
X127399723Y-151890074D02*
X127304485Y-151937693D01*
X127304485Y-151937693D02*
X127114009Y-151985312D01*
X127114009Y-151985312D02*
X126971152Y-151985312D01*
X126971152Y-151985312D02*
X126780676Y-151937693D01*
X126780676Y-151937693D02*
X126685438Y-151890074D01*
X126685438Y-151890074D02*
X126590200Y-151794836D01*
X126590200Y-151794836D02*
X126542580Y-151651979D01*
X126542580Y-151651979D02*
X126542580Y-151413884D01*
X126923533Y-152413884D02*
X126923533Y-153175789D01*
X129082580Y-151413884D02*
X130082580Y-151413884D01*
X130082580Y-151413884D02*
X130082580Y-151651979D01*
X130082580Y-151651979D02*
X130034961Y-151794836D01*
X130034961Y-151794836D02*
X129939723Y-151890074D01*
X129939723Y-151890074D02*
X129844485Y-151937693D01*
X129844485Y-151937693D02*
X129654009Y-151985312D01*
X129654009Y-151985312D02*
X129511152Y-151985312D01*
X129511152Y-151985312D02*
X129320676Y-151937693D01*
X129320676Y-151937693D02*
X129225438Y-151890074D01*
X129225438Y-151890074D02*
X129130200Y-151794836D01*
X129130200Y-151794836D02*
X129082580Y-151651979D01*
X129082580Y-151651979D02*
X129082580Y-151413884D01*
X129463533Y-152413884D02*
X129463533Y-153175789D01*
X129082580Y-152794836D02*
X129844485Y-152794836D01*
X122342931Y-155681228D02*
X122342931Y-156895514D01*
X122342931Y-156895514D02*
X122414360Y-157038371D01*
X122414360Y-157038371D02*
X122485789Y-157109800D01*
X122485789Y-157109800D02*
X122628646Y-157181228D01*
X122628646Y-157181228D02*
X122914360Y-157181228D01*
X122914360Y-157181228D02*
X123057217Y-157109800D01*
X123057217Y-157109800D02*
X123128646Y-157038371D01*
X123128646Y-157038371D02*
X123200074Y-156895514D01*
X123200074Y-156895514D02*
X123200074Y-155681228D01*
X123842932Y-157109800D02*
X124057218Y-157181228D01*
X124057218Y-157181228D02*
X124414360Y-157181228D01*
X124414360Y-157181228D02*
X124557218Y-157109800D01*
X124557218Y-157109800D02*
X124628646Y-157038371D01*
X124628646Y-157038371D02*
X124700075Y-156895514D01*
X124700075Y-156895514D02*
X124700075Y-156752657D01*
X124700075Y-156752657D02*
X124628646Y-156609800D01*
X124628646Y-156609800D02*
X124557218Y-156538371D01*
X124557218Y-156538371D02*
X124414360Y-156466942D01*
X124414360Y-156466942D02*
X124128646Y-156395514D01*
X124128646Y-156395514D02*
X123985789Y-156324085D01*
X123985789Y-156324085D02*
X123914360Y-156252657D01*
X123914360Y-156252657D02*
X123842932Y-156109800D01*
X123842932Y-156109800D02*
X123842932Y-155966942D01*
X123842932Y-155966942D02*
X123914360Y-155824085D01*
X123914360Y-155824085D02*
X123985789Y-155752657D01*
X123985789Y-155752657D02*
X124128646Y-155681228D01*
X124128646Y-155681228D02*
X124485789Y-155681228D01*
X124485789Y-155681228D02*
X124700075Y-155752657D01*
X125842931Y-156395514D02*
X126057217Y-156466942D01*
X126057217Y-156466942D02*
X126128646Y-156538371D01*
X126128646Y-156538371D02*
X126200074Y-156681228D01*
X126200074Y-156681228D02*
X126200074Y-156895514D01*
X126200074Y-156895514D02*
X126128646Y-157038371D01*
X126128646Y-157038371D02*
X126057217Y-157109800D01*
X126057217Y-157109800D02*
X125914360Y-157181228D01*
X125914360Y-157181228D02*
X125342931Y-157181228D01*
X125342931Y-157181228D02*
X125342931Y-155681228D01*
X125342931Y-155681228D02*
X125842931Y-155681228D01*
X125842931Y-155681228D02*
X125985789Y-155752657D01*
X125985789Y-155752657D02*
X126057217Y-155824085D01*
X126057217Y-155824085D02*
X126128646Y-155966942D01*
X126128646Y-155966942D02*
X126128646Y-156109800D01*
X126128646Y-156109800D02*
X126057217Y-156252657D01*
X126057217Y-156252657D02*
X125985789Y-156324085D01*
X125985789Y-156324085D02*
X125842931Y-156395514D01*
X125842931Y-156395514D02*
X125342931Y-156395514D01*
X126842931Y-156609800D02*
X127985789Y-156609800D01*
X129557217Y-157038371D02*
X129485789Y-157109800D01*
X129485789Y-157109800D02*
X129271503Y-157181228D01*
X129271503Y-157181228D02*
X129128646Y-157181228D01*
X129128646Y-157181228D02*
X128914360Y-157109800D01*
X128914360Y-157109800D02*
X128771503Y-156966942D01*
X128771503Y-156966942D02*
X128700074Y-156824085D01*
X128700074Y-156824085D02*
X128628646Y-156538371D01*
X128628646Y-156538371D02*
X128628646Y-156324085D01*
X128628646Y-156324085D02*
X128700074Y-156038371D01*
X128700074Y-156038371D02*
X128771503Y-155895514D01*
X128771503Y-155895514D02*
X128914360Y-155752657D01*
X128914360Y-155752657D02*
X129128646Y-155681228D01*
X129128646Y-155681228D02*
X129271503Y-155681228D01*
X129271503Y-155681228D02*
X129485789Y-155752657D01*
X129485789Y-155752657D02*
X129557217Y-155824085D01*
X122414961Y-151937693D02*
X122462580Y-151842455D01*
X122462580Y-151842455D02*
X122462580Y-151699598D01*
X122462580Y-151699598D02*
X122414961Y-151556741D01*
X122414961Y-151556741D02*
X122319723Y-151461503D01*
X122319723Y-151461503D02*
X122224485Y-151413884D01*
X122224485Y-151413884D02*
X122034009Y-151366265D01*
X122034009Y-151366265D02*
X121891152Y-151366265D01*
X121891152Y-151366265D02*
X121700676Y-151413884D01*
X121700676Y-151413884D02*
X121605438Y-151461503D01*
X121605438Y-151461503D02*
X121510200Y-151556741D01*
X121510200Y-151556741D02*
X121462580Y-151699598D01*
X121462580Y-151699598D02*
X121462580Y-151794836D01*
X121462580Y-151794836D02*
X121510200Y-151937693D01*
X121510200Y-151937693D02*
X121557819Y-151985312D01*
X121557819Y-151985312D02*
X121891152Y-151985312D01*
X121891152Y-151985312D02*
X121891152Y-151794836D01*
X121462580Y-152413884D02*
X122462580Y-152413884D01*
X122462580Y-152413884D02*
X121462580Y-152985312D01*
X121462580Y-152985312D02*
X122462580Y-152985312D01*
X121462580Y-153461503D02*
X122462580Y-153461503D01*
X122462580Y-153461503D02*
X122462580Y-153699598D01*
X122462580Y-153699598D02*
X122414961Y-153842455D01*
X122414961Y-153842455D02*
X122319723Y-153937693D01*
X122319723Y-153937693D02*
X122224485Y-153985312D01*
X122224485Y-153985312D02*
X122034009Y-154032931D01*
X122034009Y-154032931D02*
X121891152Y-154032931D01*
X121891152Y-154032931D02*
X121700676Y-153985312D01*
X121700676Y-153985312D02*
X121605438Y-153937693D01*
X121605438Y-153937693D02*
X121510200Y-153842455D01*
X121510200Y-153842455D02*
X121462580Y-153699598D01*
X121462580Y-153699598D02*
X121462580Y-153461503D01*
X119922580Y-151271027D02*
X118922580Y-151604360D01*
X118922580Y-151604360D02*
X119922580Y-151937693D01*
X119446390Y-152604360D02*
X119398771Y-152747217D01*
X119398771Y-152747217D02*
X119351152Y-152794836D01*
X119351152Y-152794836D02*
X119255914Y-152842455D01*
X119255914Y-152842455D02*
X119113057Y-152842455D01*
X119113057Y-152842455D02*
X119017819Y-152794836D01*
X119017819Y-152794836D02*
X118970200Y-152747217D01*
X118970200Y-152747217D02*
X118922580Y-152651979D01*
X118922580Y-152651979D02*
X118922580Y-152271027D01*
X118922580Y-152271027D02*
X119922580Y-152271027D01*
X119922580Y-152271027D02*
X119922580Y-152604360D01*
X119922580Y-152604360D02*
X119874961Y-152699598D01*
X119874961Y-152699598D02*
X119827342Y-152747217D01*
X119827342Y-152747217D02*
X119732104Y-152794836D01*
X119732104Y-152794836D02*
X119636866Y-152794836D01*
X119636866Y-152794836D02*
X119541628Y-152747217D01*
X119541628Y-152747217D02*
X119494009Y-152699598D01*
X119494009Y-152699598D02*
X119446390Y-152604360D01*
X119446390Y-152604360D02*
X119446390Y-152271027D01*
X119922580Y-153271027D02*
X119113057Y-153271027D01*
X119113057Y-153271027D02*
X119017819Y-153318646D01*
X119017819Y-153318646D02*
X118970200Y-153366265D01*
X118970200Y-153366265D02*
X118922580Y-153461503D01*
X118922580Y-153461503D02*
X118922580Y-153651979D01*
X118922580Y-153651979D02*
X118970200Y-153747217D01*
X118970200Y-153747217D02*
X119017819Y-153794836D01*
X119017819Y-153794836D02*
X119113057Y-153842455D01*
X119113057Y-153842455D02*
X119922580Y-153842455D01*
X118970200Y-154271027D02*
X118922580Y-154413884D01*
X118922580Y-154413884D02*
X118922580Y-154651979D01*
X118922580Y-154651979D02*
X118970200Y-154747217D01*
X118970200Y-154747217D02*
X119017819Y-154794836D01*
X119017819Y-154794836D02*
X119113057Y-154842455D01*
X119113057Y-154842455D02*
X119208295Y-154842455D01*
X119208295Y-154842455D02*
X119303533Y-154794836D01*
X119303533Y-154794836D02*
X119351152Y-154747217D01*
X119351152Y-154747217D02*
X119398771Y-154651979D01*
X119398771Y-154651979D02*
X119446390Y-154461503D01*
X119446390Y-154461503D02*
X119494009Y-154366265D01*
X119494009Y-154366265D02*
X119541628Y-154318646D01*
X119541628Y-154318646D02*
X119636866Y-154271027D01*
X119636866Y-154271027D02*
X119732104Y-154271027D01*
X119732104Y-154271027D02*
X119827342Y-154318646D01*
X119827342Y-154318646D02*
X119874961Y-154366265D01*
X119874961Y-154366265D02*
X119922580Y-154461503D01*
X119922580Y-154461503D02*
X119922580Y-154699598D01*
X119922580Y-154699598D02*
X119874961Y-154842455D01*
D12*
X110323333Y-98189580D02*
X110275714Y-98237200D01*
X110275714Y-98237200D02*
X110132857Y-98284819D01*
X110132857Y-98284819D02*
X110037619Y-98284819D01*
X110037619Y-98284819D02*
X109894762Y-98237200D01*
X109894762Y-98237200D02*
X109799524Y-98141961D01*
X109799524Y-98141961D02*
X109751905Y-98046723D01*
X109751905Y-98046723D02*
X109704286Y-97856247D01*
X109704286Y-97856247D02*
X109704286Y-97713390D01*
X109704286Y-97713390D02*
X109751905Y-97522914D01*
X109751905Y-97522914D02*
X109799524Y-97427676D01*
X109799524Y-97427676D02*
X109894762Y-97332438D01*
X109894762Y-97332438D02*
X110037619Y-97284819D01*
X110037619Y-97284819D02*
X110132857Y-97284819D01*
X110132857Y-97284819D02*
X110275714Y-97332438D01*
X110275714Y-97332438D02*
X110323333Y-97380057D01*
X111180476Y-97618152D02*
X111180476Y-98284819D01*
X110942381Y-97237200D02*
X110704286Y-97951485D01*
X110704286Y-97951485D02*
X111323333Y-97951485D01*
X110323333Y-91839580D02*
X110275714Y-91887200D01*
X110275714Y-91887200D02*
X110132857Y-91934819D01*
X110132857Y-91934819D02*
X110037619Y-91934819D01*
X110037619Y-91934819D02*
X109894762Y-91887200D01*
X109894762Y-91887200D02*
X109799524Y-91791961D01*
X109799524Y-91791961D02*
X109751905Y-91696723D01*
X109751905Y-91696723D02*
X109704286Y-91506247D01*
X109704286Y-91506247D02*
X109704286Y-91363390D01*
X109704286Y-91363390D02*
X109751905Y-91172914D01*
X109751905Y-91172914D02*
X109799524Y-91077676D01*
X109799524Y-91077676D02*
X109894762Y-90982438D01*
X109894762Y-90982438D02*
X110037619Y-90934819D01*
X110037619Y-90934819D02*
X110132857Y-90934819D01*
X110132857Y-90934819D02*
X110275714Y-90982438D01*
X110275714Y-90982438D02*
X110323333Y-91030057D01*
X110656667Y-90934819D02*
X111275714Y-90934819D01*
X111275714Y-90934819D02*
X110942381Y-91315771D01*
X110942381Y-91315771D02*
X111085238Y-91315771D01*
X111085238Y-91315771D02*
X111180476Y-91363390D01*
X111180476Y-91363390D02*
X111228095Y-91411009D01*
X111228095Y-91411009D02*
X111275714Y-91506247D01*
X111275714Y-91506247D02*
X111275714Y-91744342D01*
X111275714Y-91744342D02*
X111228095Y-91839580D01*
X111228095Y-91839580D02*
X111180476Y-91887200D01*
X111180476Y-91887200D02*
X111085238Y-91934819D01*
X111085238Y-91934819D02*
X110799524Y-91934819D01*
X110799524Y-91934819D02*
X110704286Y-91887200D01*
X110704286Y-91887200D02*
X110656667Y-91839580D01*
D11*
X107085237Y-147888609D02*
X107228094Y-147936228D01*
X107228094Y-147936228D02*
X107275713Y-147983847D01*
X107275713Y-147983847D02*
X107323332Y-148079085D01*
X107323332Y-148079085D02*
X107323332Y-148221942D01*
X107323332Y-148221942D02*
X107275713Y-148317180D01*
X107275713Y-148317180D02*
X107228094Y-148364800D01*
X107228094Y-148364800D02*
X107132856Y-148412419D01*
X107132856Y-148412419D02*
X106751904Y-148412419D01*
X106751904Y-148412419D02*
X106751904Y-147412419D01*
X106751904Y-147412419D02*
X107085237Y-147412419D01*
X107085237Y-147412419D02*
X107180475Y-147460038D01*
X107180475Y-147460038D02*
X107228094Y-147507657D01*
X107228094Y-147507657D02*
X107275713Y-147602895D01*
X107275713Y-147602895D02*
X107275713Y-147698133D01*
X107275713Y-147698133D02*
X107228094Y-147793371D01*
X107228094Y-147793371D02*
X107180475Y-147840990D01*
X107180475Y-147840990D02*
X107085237Y-147888609D01*
X107085237Y-147888609D02*
X106751904Y-147888609D01*
X107704285Y-148126704D02*
X108180475Y-148126704D01*
X107609047Y-148412419D02*
X107942380Y-147412419D01*
X107942380Y-147412419D02*
X108275713Y-148412419D01*
X108466190Y-147412419D02*
X109037618Y-147412419D01*
X108751904Y-148412419D02*
X108751904Y-147412419D01*
X109132857Y-148507657D02*
X109894761Y-148507657D01*
X110704285Y-148317180D02*
X110656666Y-148364800D01*
X110656666Y-148364800D02*
X110513809Y-148412419D01*
X110513809Y-148412419D02*
X110418571Y-148412419D01*
X110418571Y-148412419D02*
X110275714Y-148364800D01*
X110275714Y-148364800D02*
X110180476Y-148269561D01*
X110180476Y-148269561D02*
X110132857Y-148174323D01*
X110132857Y-148174323D02*
X110085238Y-147983847D01*
X110085238Y-147983847D02*
X110085238Y-147840990D01*
X110085238Y-147840990D02*
X110132857Y-147650514D01*
X110132857Y-147650514D02*
X110180476Y-147555276D01*
X110180476Y-147555276D02*
X110275714Y-147460038D01*
X110275714Y-147460038D02*
X110418571Y-147412419D01*
X110418571Y-147412419D02*
X110513809Y-147412419D01*
X110513809Y-147412419D02*
X110656666Y-147460038D01*
X110656666Y-147460038D02*
X110704285Y-147507657D01*
X111085238Y-148126704D02*
X111561428Y-148126704D01*
X110990000Y-148412419D02*
X111323333Y-147412419D01*
X111323333Y-147412419D02*
X111656666Y-148412419D01*
X112323333Y-147888609D02*
X112466190Y-147936228D01*
X112466190Y-147936228D02*
X112513809Y-147983847D01*
X112513809Y-147983847D02*
X112561428Y-148079085D01*
X112561428Y-148079085D02*
X112561428Y-148221942D01*
X112561428Y-148221942D02*
X112513809Y-148317180D01*
X112513809Y-148317180D02*
X112466190Y-148364800D01*
X112466190Y-148364800D02*
X112370952Y-148412419D01*
X112370952Y-148412419D02*
X111990000Y-148412419D01*
X111990000Y-148412419D02*
X111990000Y-147412419D01*
X111990000Y-147412419D02*
X112323333Y-147412419D01*
X112323333Y-147412419D02*
X112418571Y-147460038D01*
X112418571Y-147460038D02*
X112466190Y-147507657D01*
X112466190Y-147507657D02*
X112513809Y-147602895D01*
X112513809Y-147602895D02*
X112513809Y-147698133D01*
X112513809Y-147698133D02*
X112466190Y-147793371D01*
X112466190Y-147793371D02*
X112418571Y-147840990D01*
X112418571Y-147840990D02*
X112323333Y-147888609D01*
X112323333Y-147888609D02*
X111990000Y-147888609D01*
X113466190Y-148412419D02*
X112990000Y-148412419D01*
X112990000Y-148412419D02*
X112990000Y-147412419D01*
X113799524Y-147888609D02*
X114132857Y-147888609D01*
X114275714Y-148412419D02*
X113799524Y-148412419D01*
X113799524Y-148412419D02*
X113799524Y-147412419D01*
X113799524Y-147412419D02*
X114275714Y-147412419D01*
D12*
X138096666Y-74350150D02*
X138096666Y-75064435D01*
X138096666Y-75064435D02*
X138049047Y-75207292D01*
X138049047Y-75207292D02*
X137953809Y-75302531D01*
X137953809Y-75302531D02*
X137810952Y-75350150D01*
X137810952Y-75350150D02*
X137715714Y-75350150D01*
X139096666Y-75350150D02*
X138525238Y-75350150D01*
X138810952Y-75350150D02*
X138810952Y-74350150D01*
X138810952Y-74350150D02*
X138715714Y-74493007D01*
X138715714Y-74493007D02*
X138620476Y-74588245D01*
X138620476Y-74588245D02*
X138525238Y-74635864D01*
D11*
X129097693Y-122583081D02*
X128526265Y-122583081D01*
X128811979Y-122583081D02*
X128811979Y-121583081D01*
X128811979Y-121583081D02*
X128716741Y-121725938D01*
X128716741Y-121725938D02*
X128621503Y-121821176D01*
X128621503Y-121821176D02*
X128526265Y-121868795D01*
X129478646Y-121678319D02*
X129526265Y-121630700D01*
X129526265Y-121630700D02*
X129621503Y-121583081D01*
X129621503Y-121583081D02*
X129859598Y-121583081D01*
X129859598Y-121583081D02*
X129954836Y-121630700D01*
X129954836Y-121630700D02*
X130002455Y-121678319D01*
X130002455Y-121678319D02*
X130050074Y-121773557D01*
X130050074Y-121773557D02*
X130050074Y-121868795D01*
X130050074Y-121868795D02*
X130002455Y-122011652D01*
X130002455Y-122011652D02*
X129431027Y-122583081D01*
X129431027Y-122583081D02*
X130050074Y-122583081D01*
X129145312Y-97183081D02*
X128811979Y-96706890D01*
X128573884Y-97183081D02*
X128573884Y-96183081D01*
X128573884Y-96183081D02*
X128954836Y-96183081D01*
X128954836Y-96183081D02*
X129050074Y-96230700D01*
X129050074Y-96230700D02*
X129097693Y-96278319D01*
X129097693Y-96278319D02*
X129145312Y-96373557D01*
X129145312Y-96373557D02*
X129145312Y-96516414D01*
X129145312Y-96516414D02*
X129097693Y-96611652D01*
X129097693Y-96611652D02*
X129050074Y-96659271D01*
X129050074Y-96659271D02*
X128954836Y-96706890D01*
X128954836Y-96706890D02*
X128573884Y-96706890D01*
X129573884Y-96659271D02*
X129907217Y-96659271D01*
X130050074Y-97183081D02*
X129573884Y-97183081D01*
X129573884Y-97183081D02*
X129573884Y-96183081D01*
X129573884Y-96183081D02*
X130050074Y-96183081D01*
X130431027Y-97135462D02*
X130573884Y-97183081D01*
X130573884Y-97183081D02*
X130811979Y-97183081D01*
X130811979Y-97183081D02*
X130907217Y-97135462D01*
X130907217Y-97135462D02*
X130954836Y-97087842D01*
X130954836Y-97087842D02*
X131002455Y-96992604D01*
X131002455Y-96992604D02*
X131002455Y-96897366D01*
X131002455Y-96897366D02*
X130954836Y-96802128D01*
X130954836Y-96802128D02*
X130907217Y-96754509D01*
X130907217Y-96754509D02*
X130811979Y-96706890D01*
X130811979Y-96706890D02*
X130621503Y-96659271D01*
X130621503Y-96659271D02*
X130526265Y-96611652D01*
X130526265Y-96611652D02*
X130478646Y-96564033D01*
X130478646Y-96564033D02*
X130431027Y-96468795D01*
X130431027Y-96468795D02*
X130431027Y-96373557D01*
X130431027Y-96373557D02*
X130478646Y-96278319D01*
X130478646Y-96278319D02*
X130526265Y-96230700D01*
X130526265Y-96230700D02*
X130621503Y-96183081D01*
X130621503Y-96183081D02*
X130859598Y-96183081D01*
X130859598Y-96183081D02*
X131002455Y-96230700D01*
X131431027Y-96659271D02*
X131764360Y-96659271D01*
X131907217Y-97183081D02*
X131431027Y-97183081D01*
X131431027Y-97183081D02*
X131431027Y-96183081D01*
X131431027Y-96183081D02*
X131907217Y-96183081D01*
X132192932Y-96183081D02*
X132764360Y-96183081D01*
X132478646Y-97183081D02*
X132478646Y-96183081D01*
X129097693Y-120043081D02*
X128526265Y-120043081D01*
X128811979Y-120043081D02*
X128811979Y-119043081D01*
X128811979Y-119043081D02*
X128716741Y-119185938D01*
X128716741Y-119185938D02*
X128621503Y-119281176D01*
X128621503Y-119281176D02*
X128526265Y-119328795D01*
X129954836Y-119376414D02*
X129954836Y-120043081D01*
X129716741Y-118995462D02*
X129478646Y-119709747D01*
X129478646Y-119709747D02*
X130097693Y-119709747D01*
X128573884Y-127139271D02*
X128907217Y-127139271D01*
X129050074Y-127663081D02*
X128573884Y-127663081D01*
X128573884Y-127663081D02*
X128573884Y-126663081D01*
X128573884Y-126663081D02*
X129050074Y-126663081D01*
X129478646Y-127663081D02*
X129478646Y-126663081D01*
X129478646Y-126663081D02*
X130050074Y-127663081D01*
X130050074Y-127663081D02*
X130050074Y-126663081D01*
X130478646Y-127377366D02*
X130954836Y-127377366D01*
X130383408Y-127663081D02*
X130716741Y-126663081D01*
X130716741Y-126663081D02*
X131050074Y-127663081D01*
X131716741Y-127139271D02*
X131859598Y-127186890D01*
X131859598Y-127186890D02*
X131907217Y-127234509D01*
X131907217Y-127234509D02*
X131954836Y-127329747D01*
X131954836Y-127329747D02*
X131954836Y-127472604D01*
X131954836Y-127472604D02*
X131907217Y-127567842D01*
X131907217Y-127567842D02*
X131859598Y-127615462D01*
X131859598Y-127615462D02*
X131764360Y-127663081D01*
X131764360Y-127663081D02*
X131383408Y-127663081D01*
X131383408Y-127663081D02*
X131383408Y-126663081D01*
X131383408Y-126663081D02*
X131716741Y-126663081D01*
X131716741Y-126663081D02*
X131811979Y-126710700D01*
X131811979Y-126710700D02*
X131859598Y-126758319D01*
X131859598Y-126758319D02*
X131907217Y-126853557D01*
X131907217Y-126853557D02*
X131907217Y-126948795D01*
X131907217Y-126948795D02*
X131859598Y-127044033D01*
X131859598Y-127044033D02*
X131811979Y-127091652D01*
X131811979Y-127091652D02*
X131716741Y-127139271D01*
X131716741Y-127139271D02*
X131383408Y-127139271D01*
X132859598Y-127663081D02*
X132383408Y-127663081D01*
X132383408Y-127663081D02*
X132383408Y-126663081D01*
X133192932Y-127139271D02*
X133526265Y-127139271D01*
X133669122Y-127663081D02*
X133192932Y-127663081D01*
X133192932Y-127663081D02*
X133192932Y-126663081D01*
X133192932Y-126663081D02*
X133669122Y-126663081D01*
X147714687Y-103803081D02*
X148333734Y-103803081D01*
X148333734Y-103803081D02*
X148000401Y-104184033D01*
X148000401Y-104184033D02*
X148143258Y-104184033D01*
X148143258Y-104184033D02*
X148238496Y-104231652D01*
X148238496Y-104231652D02*
X148286115Y-104279271D01*
X148286115Y-104279271D02*
X148333734Y-104374509D01*
X148333734Y-104374509D02*
X148333734Y-104612604D01*
X148333734Y-104612604D02*
X148286115Y-104707842D01*
X148286115Y-104707842D02*
X148238496Y-104755462D01*
X148238496Y-104755462D02*
X148143258Y-104803081D01*
X148143258Y-104803081D02*
X147857544Y-104803081D01*
X147857544Y-104803081D02*
X147762306Y-104755462D01*
X147762306Y-104755462D02*
X147714687Y-104707842D01*
X146809925Y-106438319D02*
X146857544Y-106390700D01*
X146857544Y-106390700D02*
X146952782Y-106343081D01*
X146952782Y-106343081D02*
X147190877Y-106343081D01*
X147190877Y-106343081D02*
X147286115Y-106390700D01*
X147286115Y-106390700D02*
X147333734Y-106438319D01*
X147333734Y-106438319D02*
X147381353Y-106533557D01*
X147381353Y-106533557D02*
X147381353Y-106628795D01*
X147381353Y-106628795D02*
X147333734Y-106771652D01*
X147333734Y-106771652D02*
X146762306Y-107343081D01*
X146762306Y-107343081D02*
X147381353Y-107343081D01*
X148333734Y-107343081D02*
X147762306Y-107343081D01*
X148048020Y-107343081D02*
X148048020Y-106343081D01*
X148048020Y-106343081D02*
X147952782Y-106485938D01*
X147952782Y-106485938D02*
X147857544Y-106581176D01*
X147857544Y-106581176D02*
X147762306Y-106628795D01*
X148286115Y-113963081D02*
X147809925Y-113963081D01*
X147809925Y-113963081D02*
X147762306Y-114439271D01*
X147762306Y-114439271D02*
X147809925Y-114391652D01*
X147809925Y-114391652D02*
X147905163Y-114344033D01*
X147905163Y-114344033D02*
X148143258Y-114344033D01*
X148143258Y-114344033D02*
X148238496Y-114391652D01*
X148238496Y-114391652D02*
X148286115Y-114439271D01*
X148286115Y-114439271D02*
X148333734Y-114534509D01*
X148333734Y-114534509D02*
X148333734Y-114772604D01*
X148333734Y-114772604D02*
X148286115Y-114867842D01*
X148286115Y-114867842D02*
X148238496Y-114915462D01*
X148238496Y-114915462D02*
X148143258Y-114963081D01*
X148143258Y-114963081D02*
X147905163Y-114963081D01*
X147905163Y-114963081D02*
X147809925Y-114915462D01*
X147809925Y-114915462D02*
X147762306Y-114867842D01*
X147381353Y-117503081D02*
X146809925Y-117503081D01*
X147095639Y-117503081D02*
X147095639Y-116503081D01*
X147095639Y-116503081D02*
X147000401Y-116645938D01*
X147000401Y-116645938D02*
X146905163Y-116741176D01*
X146905163Y-116741176D02*
X146809925Y-116788795D01*
X147714687Y-116503081D02*
X148381353Y-116503081D01*
X148381353Y-116503081D02*
X147952782Y-117503081D01*
X128478646Y-106343081D02*
X129097693Y-106343081D01*
X129097693Y-106343081D02*
X128764360Y-106724033D01*
X128764360Y-106724033D02*
X128907217Y-106724033D01*
X128907217Y-106724033D02*
X129002455Y-106771652D01*
X129002455Y-106771652D02*
X129050074Y-106819271D01*
X129050074Y-106819271D02*
X129097693Y-106914509D01*
X129097693Y-106914509D02*
X129097693Y-107152604D01*
X129097693Y-107152604D02*
X129050074Y-107247842D01*
X129050074Y-107247842D02*
X129002455Y-107295462D01*
X129002455Y-107295462D02*
X128907217Y-107343081D01*
X128907217Y-107343081D02*
X128621503Y-107343081D01*
X128621503Y-107343081D02*
X128526265Y-107295462D01*
X128526265Y-107295462D02*
X128478646Y-107247842D01*
X129478646Y-106438319D02*
X129526265Y-106390700D01*
X129526265Y-106390700D02*
X129621503Y-106343081D01*
X129621503Y-106343081D02*
X129859598Y-106343081D01*
X129859598Y-106343081D02*
X129954836Y-106390700D01*
X129954836Y-106390700D02*
X130002455Y-106438319D01*
X130002455Y-106438319D02*
X130050074Y-106533557D01*
X130050074Y-106533557D02*
X130050074Y-106628795D01*
X130050074Y-106628795D02*
X130002455Y-106771652D01*
X130002455Y-106771652D02*
X129431027Y-107343081D01*
X129431027Y-107343081D02*
X130050074Y-107343081D01*
X147381353Y-109883081D02*
X146809925Y-109883081D01*
X147095639Y-109883081D02*
X147095639Y-108883081D01*
X147095639Y-108883081D02*
X147000401Y-109025938D01*
X147000401Y-109025938D02*
X146905163Y-109121176D01*
X146905163Y-109121176D02*
X146809925Y-109168795D01*
X147857544Y-109883081D02*
X148048020Y-109883081D01*
X148048020Y-109883081D02*
X148143258Y-109835462D01*
X148143258Y-109835462D02*
X148190877Y-109787842D01*
X148190877Y-109787842D02*
X148286115Y-109644985D01*
X148286115Y-109644985D02*
X148333734Y-109454509D01*
X148333734Y-109454509D02*
X148333734Y-109073557D01*
X148333734Y-109073557D02*
X148286115Y-108978319D01*
X148286115Y-108978319D02*
X148238496Y-108930700D01*
X148238496Y-108930700D02*
X148143258Y-108883081D01*
X148143258Y-108883081D02*
X147952782Y-108883081D01*
X147952782Y-108883081D02*
X147857544Y-108930700D01*
X147857544Y-108930700D02*
X147809925Y-108978319D01*
X147809925Y-108978319D02*
X147762306Y-109073557D01*
X147762306Y-109073557D02*
X147762306Y-109311652D01*
X147762306Y-109311652D02*
X147809925Y-109406890D01*
X147809925Y-109406890D02*
X147857544Y-109454509D01*
X147857544Y-109454509D02*
X147952782Y-109502128D01*
X147952782Y-109502128D02*
X148143258Y-109502128D01*
X148143258Y-109502128D02*
X148238496Y-109454509D01*
X148238496Y-109454509D02*
X148286115Y-109406890D01*
X148286115Y-109406890D02*
X148333734Y-109311652D01*
X146809925Y-98818319D02*
X146857544Y-98770700D01*
X146857544Y-98770700D02*
X146952782Y-98723081D01*
X146952782Y-98723081D02*
X147190877Y-98723081D01*
X147190877Y-98723081D02*
X147286115Y-98770700D01*
X147286115Y-98770700D02*
X147333734Y-98818319D01*
X147333734Y-98818319D02*
X147381353Y-98913557D01*
X147381353Y-98913557D02*
X147381353Y-99008795D01*
X147381353Y-99008795D02*
X147333734Y-99151652D01*
X147333734Y-99151652D02*
X146762306Y-99723081D01*
X146762306Y-99723081D02*
X147381353Y-99723081D01*
X147762306Y-98818319D02*
X147809925Y-98770700D01*
X147809925Y-98770700D02*
X147905163Y-98723081D01*
X147905163Y-98723081D02*
X148143258Y-98723081D01*
X148143258Y-98723081D02*
X148238496Y-98770700D01*
X148238496Y-98770700D02*
X148286115Y-98818319D01*
X148286115Y-98818319D02*
X148333734Y-98913557D01*
X148333734Y-98913557D02*
X148333734Y-99008795D01*
X148333734Y-99008795D02*
X148286115Y-99151652D01*
X148286115Y-99151652D02*
X147714687Y-99723081D01*
X147714687Y-99723081D02*
X148333734Y-99723081D01*
X128478646Y-93643081D02*
X129097693Y-93643081D01*
X129097693Y-93643081D02*
X128764360Y-94024033D01*
X128764360Y-94024033D02*
X128907217Y-94024033D01*
X128907217Y-94024033D02*
X129002455Y-94071652D01*
X129002455Y-94071652D02*
X129050074Y-94119271D01*
X129050074Y-94119271D02*
X129097693Y-94214509D01*
X129097693Y-94214509D02*
X129097693Y-94452604D01*
X129097693Y-94452604D02*
X129050074Y-94547842D01*
X129050074Y-94547842D02*
X129002455Y-94595462D01*
X129002455Y-94595462D02*
X128907217Y-94643081D01*
X128907217Y-94643081D02*
X128621503Y-94643081D01*
X128621503Y-94643081D02*
X128526265Y-94595462D01*
X128526265Y-94595462D02*
X128478646Y-94547842D01*
X129383408Y-93643081D02*
X129716741Y-94643081D01*
X129716741Y-94643081D02*
X130050074Y-93643081D01*
X128526265Y-111518319D02*
X128573884Y-111470700D01*
X128573884Y-111470700D02*
X128669122Y-111423081D01*
X128669122Y-111423081D02*
X128907217Y-111423081D01*
X128907217Y-111423081D02*
X129002455Y-111470700D01*
X129002455Y-111470700D02*
X129050074Y-111518319D01*
X129050074Y-111518319D02*
X129097693Y-111613557D01*
X129097693Y-111613557D02*
X129097693Y-111708795D01*
X129097693Y-111708795D02*
X129050074Y-111851652D01*
X129050074Y-111851652D02*
X128478646Y-112423081D01*
X128478646Y-112423081D02*
X129097693Y-112423081D01*
X130002455Y-111423081D02*
X129526265Y-111423081D01*
X129526265Y-111423081D02*
X129478646Y-111899271D01*
X129478646Y-111899271D02*
X129526265Y-111851652D01*
X129526265Y-111851652D02*
X129621503Y-111804033D01*
X129621503Y-111804033D02*
X129859598Y-111804033D01*
X129859598Y-111804033D02*
X129954836Y-111851652D01*
X129954836Y-111851652D02*
X130002455Y-111899271D01*
X130002455Y-111899271D02*
X130050074Y-111994509D01*
X130050074Y-111994509D02*
X130050074Y-112232604D01*
X130050074Y-112232604D02*
X130002455Y-112327842D01*
X130002455Y-112327842D02*
X129954836Y-112375462D01*
X129954836Y-112375462D02*
X129859598Y-112423081D01*
X129859598Y-112423081D02*
X129621503Y-112423081D01*
X129621503Y-112423081D02*
X129526265Y-112375462D01*
X129526265Y-112375462D02*
X129478646Y-112327842D01*
X147381353Y-112423081D02*
X146809925Y-112423081D01*
X147095639Y-112423081D02*
X147095639Y-111423081D01*
X147095639Y-111423081D02*
X147000401Y-111565938D01*
X147000401Y-111565938D02*
X146905163Y-111661176D01*
X146905163Y-111661176D02*
X146809925Y-111708795D01*
X147952782Y-111851652D02*
X147857544Y-111804033D01*
X147857544Y-111804033D02*
X147809925Y-111756414D01*
X147809925Y-111756414D02*
X147762306Y-111661176D01*
X147762306Y-111661176D02*
X147762306Y-111613557D01*
X147762306Y-111613557D02*
X147809925Y-111518319D01*
X147809925Y-111518319D02*
X147857544Y-111470700D01*
X147857544Y-111470700D02*
X147952782Y-111423081D01*
X147952782Y-111423081D02*
X148143258Y-111423081D01*
X148143258Y-111423081D02*
X148238496Y-111470700D01*
X148238496Y-111470700D02*
X148286115Y-111518319D01*
X148286115Y-111518319D02*
X148333734Y-111613557D01*
X148333734Y-111613557D02*
X148333734Y-111661176D01*
X148333734Y-111661176D02*
X148286115Y-111756414D01*
X148286115Y-111756414D02*
X148238496Y-111804033D01*
X148238496Y-111804033D02*
X148143258Y-111851652D01*
X148143258Y-111851652D02*
X147952782Y-111851652D01*
X147952782Y-111851652D02*
X147857544Y-111899271D01*
X147857544Y-111899271D02*
X147809925Y-111946890D01*
X147809925Y-111946890D02*
X147762306Y-112042128D01*
X147762306Y-112042128D02*
X147762306Y-112232604D01*
X147762306Y-112232604D02*
X147809925Y-112327842D01*
X147809925Y-112327842D02*
X147857544Y-112375462D01*
X147857544Y-112375462D02*
X147952782Y-112423081D01*
X147952782Y-112423081D02*
X148143258Y-112423081D01*
X148143258Y-112423081D02*
X148238496Y-112375462D01*
X148238496Y-112375462D02*
X148286115Y-112327842D01*
X148286115Y-112327842D02*
X148333734Y-112232604D01*
X148333734Y-112232604D02*
X148333734Y-112042128D01*
X148333734Y-112042128D02*
X148286115Y-111946890D01*
X148286115Y-111946890D02*
X148238496Y-111899271D01*
X148238496Y-111899271D02*
X148143258Y-111851652D01*
X128526265Y-116598319D02*
X128573884Y-116550700D01*
X128573884Y-116550700D02*
X128669122Y-116503081D01*
X128669122Y-116503081D02*
X128907217Y-116503081D01*
X128907217Y-116503081D02*
X129002455Y-116550700D01*
X129002455Y-116550700D02*
X129050074Y-116598319D01*
X129050074Y-116598319D02*
X129097693Y-116693557D01*
X129097693Y-116693557D02*
X129097693Y-116788795D01*
X129097693Y-116788795D02*
X129050074Y-116931652D01*
X129050074Y-116931652D02*
X128478646Y-117503081D01*
X128478646Y-117503081D02*
X129097693Y-117503081D01*
X129431027Y-116503081D02*
X130097693Y-116503081D01*
X130097693Y-116503081D02*
X129669122Y-117503081D01*
X146809925Y-96278319D02*
X146857544Y-96230700D01*
X146857544Y-96230700D02*
X146952782Y-96183081D01*
X146952782Y-96183081D02*
X147190877Y-96183081D01*
X147190877Y-96183081D02*
X147286115Y-96230700D01*
X147286115Y-96230700D02*
X147333734Y-96278319D01*
X147333734Y-96278319D02*
X147381353Y-96373557D01*
X147381353Y-96373557D02*
X147381353Y-96468795D01*
X147381353Y-96468795D02*
X147333734Y-96611652D01*
X147333734Y-96611652D02*
X146762306Y-97183081D01*
X146762306Y-97183081D02*
X147381353Y-97183081D01*
X147714687Y-96183081D02*
X148333734Y-96183081D01*
X148333734Y-96183081D02*
X148000401Y-96564033D01*
X148000401Y-96564033D02*
X148143258Y-96564033D01*
X148143258Y-96564033D02*
X148238496Y-96611652D01*
X148238496Y-96611652D02*
X148286115Y-96659271D01*
X148286115Y-96659271D02*
X148333734Y-96754509D01*
X148333734Y-96754509D02*
X148333734Y-96992604D01*
X148333734Y-96992604D02*
X148286115Y-97087842D01*
X148286115Y-97087842D02*
X148238496Y-97135462D01*
X148238496Y-97135462D02*
X148143258Y-97183081D01*
X148143258Y-97183081D02*
X147857544Y-97183081D01*
X147857544Y-97183081D02*
X147762306Y-97135462D01*
X147762306Y-97135462D02*
X147714687Y-97087842D01*
X128907217Y-132219271D02*
X129050074Y-132266890D01*
X129050074Y-132266890D02*
X129097693Y-132314509D01*
X129097693Y-132314509D02*
X129145312Y-132409747D01*
X129145312Y-132409747D02*
X129145312Y-132552604D01*
X129145312Y-132552604D02*
X129097693Y-132647842D01*
X129097693Y-132647842D02*
X129050074Y-132695462D01*
X129050074Y-132695462D02*
X128954836Y-132743081D01*
X128954836Y-132743081D02*
X128573884Y-132743081D01*
X128573884Y-132743081D02*
X128573884Y-131743081D01*
X128573884Y-131743081D02*
X128907217Y-131743081D01*
X128907217Y-131743081D02*
X129002455Y-131790700D01*
X129002455Y-131790700D02*
X129050074Y-131838319D01*
X129050074Y-131838319D02*
X129097693Y-131933557D01*
X129097693Y-131933557D02*
X129097693Y-132028795D01*
X129097693Y-132028795D02*
X129050074Y-132124033D01*
X129050074Y-132124033D02*
X129002455Y-132171652D01*
X129002455Y-132171652D02*
X128907217Y-132219271D01*
X128907217Y-132219271D02*
X128573884Y-132219271D01*
X129526265Y-132457366D02*
X130002455Y-132457366D01*
X129431027Y-132743081D02*
X129764360Y-131743081D01*
X129764360Y-131743081D02*
X130097693Y-132743081D01*
X130288170Y-131743081D02*
X130859598Y-131743081D01*
X130573884Y-132743081D02*
X130573884Y-131743081D01*
X148238496Y-121916414D02*
X148238496Y-122583081D01*
X148000401Y-121535462D02*
X147762306Y-122249747D01*
X147762306Y-122249747D02*
X148381353Y-122249747D01*
X128431027Y-101263081D02*
X128764360Y-102263081D01*
X128764360Y-102263081D02*
X129097693Y-101263081D01*
X129431027Y-102263081D02*
X129431027Y-101263081D01*
X129431027Y-101263081D02*
X130002455Y-102263081D01*
X130002455Y-102263081D02*
X130002455Y-101263081D01*
X128431027Y-98723081D02*
X128764360Y-99723081D01*
X128764360Y-99723081D02*
X129097693Y-98723081D01*
X129431027Y-99723081D02*
X129431027Y-98723081D01*
X129431027Y-98723081D02*
X129811979Y-98723081D01*
X129811979Y-98723081D02*
X129907217Y-98770700D01*
X129907217Y-98770700D02*
X129954836Y-98818319D01*
X129954836Y-98818319D02*
X130002455Y-98913557D01*
X130002455Y-98913557D02*
X130002455Y-99056414D01*
X130002455Y-99056414D02*
X129954836Y-99151652D01*
X129954836Y-99151652D02*
X129907217Y-99199271D01*
X129907217Y-99199271D02*
X129811979Y-99246890D01*
X129811979Y-99246890D02*
X129431027Y-99246890D01*
X129097693Y-125123081D02*
X128526265Y-125123081D01*
X128811979Y-125123081D02*
X128811979Y-124123081D01*
X128811979Y-124123081D02*
X128716741Y-124265938D01*
X128716741Y-124265938D02*
X128621503Y-124361176D01*
X128621503Y-124361176D02*
X128526265Y-124408795D01*
X129431027Y-124123081D02*
X130050074Y-124123081D01*
X130050074Y-124123081D02*
X129716741Y-124504033D01*
X129716741Y-124504033D02*
X129859598Y-124504033D01*
X129859598Y-124504033D02*
X129954836Y-124551652D01*
X129954836Y-124551652D02*
X130002455Y-124599271D01*
X130002455Y-124599271D02*
X130050074Y-124694509D01*
X130050074Y-124694509D02*
X130050074Y-124932604D01*
X130050074Y-124932604D02*
X130002455Y-125027842D01*
X130002455Y-125027842D02*
X129954836Y-125075462D01*
X129954836Y-125075462D02*
X129859598Y-125123081D01*
X129859598Y-125123081D02*
X129573884Y-125123081D01*
X129573884Y-125123081D02*
X129478646Y-125075462D01*
X129478646Y-125075462D02*
X129431027Y-125027842D01*
X128573884Y-129203081D02*
X128573884Y-130012604D01*
X128573884Y-130012604D02*
X128621503Y-130107842D01*
X128621503Y-130107842D02*
X128669122Y-130155462D01*
X128669122Y-130155462D02*
X128764360Y-130203081D01*
X128764360Y-130203081D02*
X128954836Y-130203081D01*
X128954836Y-130203081D02*
X129050074Y-130155462D01*
X129050074Y-130155462D02*
X129097693Y-130107842D01*
X129097693Y-130107842D02*
X129145312Y-130012604D01*
X129145312Y-130012604D02*
X129145312Y-129203081D01*
X129573884Y-130155462D02*
X129716741Y-130203081D01*
X129716741Y-130203081D02*
X129954836Y-130203081D01*
X129954836Y-130203081D02*
X130050074Y-130155462D01*
X130050074Y-130155462D02*
X130097693Y-130107842D01*
X130097693Y-130107842D02*
X130145312Y-130012604D01*
X130145312Y-130012604D02*
X130145312Y-129917366D01*
X130145312Y-129917366D02*
X130097693Y-129822128D01*
X130097693Y-129822128D02*
X130050074Y-129774509D01*
X130050074Y-129774509D02*
X129954836Y-129726890D01*
X129954836Y-129726890D02*
X129764360Y-129679271D01*
X129764360Y-129679271D02*
X129669122Y-129631652D01*
X129669122Y-129631652D02*
X129621503Y-129584033D01*
X129621503Y-129584033D02*
X129573884Y-129488795D01*
X129573884Y-129488795D02*
X129573884Y-129393557D01*
X129573884Y-129393557D02*
X129621503Y-129298319D01*
X129621503Y-129298319D02*
X129669122Y-129250700D01*
X129669122Y-129250700D02*
X129764360Y-129203081D01*
X129764360Y-129203081D02*
X130002455Y-129203081D01*
X130002455Y-129203081D02*
X130145312Y-129250700D01*
X130907217Y-129679271D02*
X131050074Y-129726890D01*
X131050074Y-129726890D02*
X131097693Y-129774509D01*
X131097693Y-129774509D02*
X131145312Y-129869747D01*
X131145312Y-129869747D02*
X131145312Y-130012604D01*
X131145312Y-130012604D02*
X131097693Y-130107842D01*
X131097693Y-130107842D02*
X131050074Y-130155462D01*
X131050074Y-130155462D02*
X130954836Y-130203081D01*
X130954836Y-130203081D02*
X130573884Y-130203081D01*
X130573884Y-130203081D02*
X130573884Y-129203081D01*
X130573884Y-129203081D02*
X130907217Y-129203081D01*
X130907217Y-129203081D02*
X131002455Y-129250700D01*
X131002455Y-129250700D02*
X131050074Y-129298319D01*
X131050074Y-129298319D02*
X131097693Y-129393557D01*
X131097693Y-129393557D02*
X131097693Y-129488795D01*
X131097693Y-129488795D02*
X131050074Y-129584033D01*
X131050074Y-129584033D02*
X131002455Y-129631652D01*
X131002455Y-129631652D02*
X130907217Y-129679271D01*
X130907217Y-129679271D02*
X130573884Y-129679271D01*
X148333734Y-102263081D02*
X147762306Y-102263081D01*
X148048020Y-102263081D02*
X148048020Y-101263081D01*
X148048020Y-101263081D02*
X147952782Y-101405938D01*
X147952782Y-101405938D02*
X147857544Y-101501176D01*
X147857544Y-101501176D02*
X147762306Y-101548795D01*
X146238496Y-131790700D02*
X146143258Y-131743081D01*
X146143258Y-131743081D02*
X146000401Y-131743081D01*
X146000401Y-131743081D02*
X145857544Y-131790700D01*
X145857544Y-131790700D02*
X145762306Y-131885938D01*
X145762306Y-131885938D02*
X145714687Y-131981176D01*
X145714687Y-131981176D02*
X145667068Y-132171652D01*
X145667068Y-132171652D02*
X145667068Y-132314509D01*
X145667068Y-132314509D02*
X145714687Y-132504985D01*
X145714687Y-132504985D02*
X145762306Y-132600223D01*
X145762306Y-132600223D02*
X145857544Y-132695462D01*
X145857544Y-132695462D02*
X146000401Y-132743081D01*
X146000401Y-132743081D02*
X146095639Y-132743081D01*
X146095639Y-132743081D02*
X146238496Y-132695462D01*
X146238496Y-132695462D02*
X146286115Y-132647842D01*
X146286115Y-132647842D02*
X146286115Y-132314509D01*
X146286115Y-132314509D02*
X146095639Y-132314509D01*
X146714687Y-132743081D02*
X146714687Y-131743081D01*
X146714687Y-131743081D02*
X147286115Y-132743081D01*
X147286115Y-132743081D02*
X147286115Y-131743081D01*
X147762306Y-132743081D02*
X147762306Y-131743081D01*
X147762306Y-131743081D02*
X148000401Y-131743081D01*
X148000401Y-131743081D02*
X148143258Y-131790700D01*
X148143258Y-131790700D02*
X148238496Y-131885938D01*
X148238496Y-131885938D02*
X148286115Y-131981176D01*
X148286115Y-131981176D02*
X148333734Y-132171652D01*
X148333734Y-132171652D02*
X148333734Y-132314509D01*
X148333734Y-132314509D02*
X148286115Y-132504985D01*
X148286115Y-132504985D02*
X148238496Y-132600223D01*
X148238496Y-132600223D02*
X148143258Y-132695462D01*
X148143258Y-132695462D02*
X148000401Y-132743081D01*
X148000401Y-132743081D02*
X147762306Y-132743081D01*
X147762306Y-126758319D02*
X147809925Y-126710700D01*
X147809925Y-126710700D02*
X147905163Y-126663081D01*
X147905163Y-126663081D02*
X148143258Y-126663081D01*
X148143258Y-126663081D02*
X148238496Y-126710700D01*
X148238496Y-126710700D02*
X148286115Y-126758319D01*
X148286115Y-126758319D02*
X148333734Y-126853557D01*
X148333734Y-126853557D02*
X148333734Y-126948795D01*
X148333734Y-126948795D02*
X148286115Y-127091652D01*
X148286115Y-127091652D02*
X147714687Y-127663081D01*
X147714687Y-127663081D02*
X148333734Y-127663081D01*
X128478646Y-108883081D02*
X129097693Y-108883081D01*
X129097693Y-108883081D02*
X128764360Y-109264033D01*
X128764360Y-109264033D02*
X128907217Y-109264033D01*
X128907217Y-109264033D02*
X129002455Y-109311652D01*
X129002455Y-109311652D02*
X129050074Y-109359271D01*
X129050074Y-109359271D02*
X129097693Y-109454509D01*
X129097693Y-109454509D02*
X129097693Y-109692604D01*
X129097693Y-109692604D02*
X129050074Y-109787842D01*
X129050074Y-109787842D02*
X129002455Y-109835462D01*
X129002455Y-109835462D02*
X128907217Y-109883081D01*
X128907217Y-109883081D02*
X128621503Y-109883081D01*
X128621503Y-109883081D02*
X128526265Y-109835462D01*
X128526265Y-109835462D02*
X128478646Y-109787842D01*
X129431027Y-108883081D02*
X130050074Y-108883081D01*
X130050074Y-108883081D02*
X129716741Y-109264033D01*
X129716741Y-109264033D02*
X129859598Y-109264033D01*
X129859598Y-109264033D02*
X129954836Y-109311652D01*
X129954836Y-109311652D02*
X130002455Y-109359271D01*
X130002455Y-109359271D02*
X130050074Y-109454509D01*
X130050074Y-109454509D02*
X130050074Y-109692604D01*
X130050074Y-109692604D02*
X130002455Y-109787842D01*
X130002455Y-109787842D02*
X129954836Y-109835462D01*
X129954836Y-109835462D02*
X129859598Y-109883081D01*
X129859598Y-109883081D02*
X129573884Y-109883081D01*
X129573884Y-109883081D02*
X129478646Y-109835462D01*
X129478646Y-109835462D02*
X129431027Y-109787842D01*
X147381353Y-130203081D02*
X146809925Y-130203081D01*
X147095639Y-130203081D02*
X147095639Y-129203081D01*
X147095639Y-129203081D02*
X147000401Y-129345938D01*
X147000401Y-129345938D02*
X146905163Y-129441176D01*
X146905163Y-129441176D02*
X146809925Y-129488795D01*
X148286115Y-129203081D02*
X147809925Y-129203081D01*
X147809925Y-129203081D02*
X147762306Y-129679271D01*
X147762306Y-129679271D02*
X147809925Y-129631652D01*
X147809925Y-129631652D02*
X147905163Y-129584033D01*
X147905163Y-129584033D02*
X148143258Y-129584033D01*
X148143258Y-129584033D02*
X148238496Y-129631652D01*
X148238496Y-129631652D02*
X148286115Y-129679271D01*
X148286115Y-129679271D02*
X148333734Y-129774509D01*
X148333734Y-129774509D02*
X148333734Y-130012604D01*
X148333734Y-130012604D02*
X148286115Y-130107842D01*
X148286115Y-130107842D02*
X148238496Y-130155462D01*
X148238496Y-130155462D02*
X148143258Y-130203081D01*
X148143258Y-130203081D02*
X147905163Y-130203081D01*
X147905163Y-130203081D02*
X147809925Y-130155462D01*
X147809925Y-130155462D02*
X147762306Y-130107842D01*
X137575038Y-125534158D02*
X139575038Y-125057968D01*
X139575038Y-125057968D02*
X138146466Y-124677015D01*
X138146466Y-124677015D02*
X139575038Y-124296063D01*
X139575038Y-124296063D02*
X137575038Y-123819873D01*
X139479800Y-122296063D02*
X139575038Y-122486539D01*
X139575038Y-122486539D02*
X139575038Y-122867492D01*
X139575038Y-122867492D02*
X139479800Y-123057968D01*
X139479800Y-123057968D02*
X139289323Y-123153206D01*
X139289323Y-123153206D02*
X138527419Y-123153206D01*
X138527419Y-123153206D02*
X138336942Y-123057968D01*
X138336942Y-123057968D02*
X138241704Y-122867492D01*
X138241704Y-122867492D02*
X138241704Y-122486539D01*
X138241704Y-122486539D02*
X138336942Y-122296063D01*
X138336942Y-122296063D02*
X138527419Y-122200825D01*
X138527419Y-122200825D02*
X138717895Y-122200825D01*
X138717895Y-122200825D02*
X138908371Y-123153206D01*
X139575038Y-121343682D02*
X138241704Y-121343682D01*
X138432180Y-121343682D02*
X138336942Y-121248444D01*
X138336942Y-121248444D02*
X138241704Y-121057968D01*
X138241704Y-121057968D02*
X138241704Y-120772253D01*
X138241704Y-120772253D02*
X138336942Y-120581777D01*
X138336942Y-120581777D02*
X138527419Y-120486539D01*
X138527419Y-120486539D02*
X139575038Y-120486539D01*
X138527419Y-120486539D02*
X138336942Y-120391301D01*
X138336942Y-120391301D02*
X138241704Y-120200825D01*
X138241704Y-120200825D02*
X138241704Y-119915111D01*
X138241704Y-119915111D02*
X138336942Y-119724634D01*
X138336942Y-119724634D02*
X138527419Y-119629396D01*
X138527419Y-119629396D02*
X139575038Y-119629396D01*
X139575038Y-118391301D02*
X139479800Y-118581777D01*
X139479800Y-118581777D02*
X139384561Y-118677015D01*
X139384561Y-118677015D02*
X139194085Y-118772253D01*
X139194085Y-118772253D02*
X138622657Y-118772253D01*
X138622657Y-118772253D02*
X138432180Y-118677015D01*
X138432180Y-118677015D02*
X138336942Y-118581777D01*
X138336942Y-118581777D02*
X138241704Y-118391301D01*
X138241704Y-118391301D02*
X138241704Y-118105586D01*
X138241704Y-118105586D02*
X138336942Y-117915110D01*
X138336942Y-117915110D02*
X138432180Y-117819872D01*
X138432180Y-117819872D02*
X138622657Y-117724634D01*
X138622657Y-117724634D02*
X139194085Y-117724634D01*
X139194085Y-117724634D02*
X139384561Y-117819872D01*
X139384561Y-117819872D02*
X139479800Y-117915110D01*
X139479800Y-117915110D02*
X139575038Y-118105586D01*
X139575038Y-118105586D02*
X139575038Y-118391301D01*
X139479800Y-116962729D02*
X139575038Y-116772253D01*
X139575038Y-116772253D02*
X139575038Y-116391301D01*
X139575038Y-116391301D02*
X139479800Y-116200824D01*
X139479800Y-116200824D02*
X139289323Y-116105586D01*
X139289323Y-116105586D02*
X139194085Y-116105586D01*
X139194085Y-116105586D02*
X139003609Y-116200824D01*
X139003609Y-116200824D02*
X138908371Y-116391301D01*
X138908371Y-116391301D02*
X138908371Y-116677015D01*
X138908371Y-116677015D02*
X138813133Y-116867491D01*
X138813133Y-116867491D02*
X138622657Y-116962729D01*
X138622657Y-116962729D02*
X138527419Y-116962729D01*
X138527419Y-116962729D02*
X138336942Y-116867491D01*
X138336942Y-116867491D02*
X138241704Y-116677015D01*
X138241704Y-116677015D02*
X138241704Y-116391301D01*
X138241704Y-116391301D02*
X138336942Y-116200824D01*
X139575038Y-112772252D02*
X139575038Y-113724633D01*
X139575038Y-113724633D02*
X137575038Y-113724633D01*
X139575038Y-111819871D02*
X139479800Y-112010347D01*
X139479800Y-112010347D02*
X139384561Y-112105585D01*
X139384561Y-112105585D02*
X139194085Y-112200823D01*
X139194085Y-112200823D02*
X138622657Y-112200823D01*
X138622657Y-112200823D02*
X138432180Y-112105585D01*
X138432180Y-112105585D02*
X138336942Y-112010347D01*
X138336942Y-112010347D02*
X138241704Y-111819871D01*
X138241704Y-111819871D02*
X138241704Y-111534156D01*
X138241704Y-111534156D02*
X138336942Y-111343680D01*
X138336942Y-111343680D02*
X138432180Y-111248442D01*
X138432180Y-111248442D02*
X138622657Y-111153204D01*
X138622657Y-111153204D02*
X139194085Y-111153204D01*
X139194085Y-111153204D02*
X139384561Y-111248442D01*
X139384561Y-111248442D02*
X139479800Y-111343680D01*
X139479800Y-111343680D02*
X139575038Y-111534156D01*
X139575038Y-111534156D02*
X139575038Y-111819871D01*
X139575038Y-110010347D02*
X139479800Y-110200823D01*
X139479800Y-110200823D02*
X139289323Y-110296061D01*
X139289323Y-110296061D02*
X137575038Y-110296061D01*
X139575038Y-109248442D02*
X138241704Y-109248442D01*
X137575038Y-109248442D02*
X137670276Y-109343680D01*
X137670276Y-109343680D02*
X137765514Y-109248442D01*
X137765514Y-109248442D02*
X137670276Y-109153204D01*
X137670276Y-109153204D02*
X137575038Y-109248442D01*
X137575038Y-109248442D02*
X137765514Y-109248442D01*
X138241704Y-108296061D02*
X139575038Y-108296061D01*
X138432180Y-108296061D02*
X138336942Y-108200823D01*
X138336942Y-108200823D02*
X138241704Y-108010347D01*
X138241704Y-108010347D02*
X138241704Y-107724632D01*
X138241704Y-107724632D02*
X138336942Y-107534156D01*
X138336942Y-107534156D02*
X138527419Y-107438918D01*
X138527419Y-107438918D02*
X139575038Y-107438918D01*
X139575038Y-104962727D02*
X137575038Y-104962727D01*
X137575038Y-104962727D02*
X137575038Y-104486537D01*
X137575038Y-104486537D02*
X137670276Y-104200822D01*
X137670276Y-104200822D02*
X137860752Y-104010346D01*
X137860752Y-104010346D02*
X138051228Y-103915108D01*
X138051228Y-103915108D02*
X138432180Y-103819870D01*
X138432180Y-103819870D02*
X138717895Y-103819870D01*
X138717895Y-103819870D02*
X139098847Y-103915108D01*
X139098847Y-103915108D02*
X139289323Y-104010346D01*
X139289323Y-104010346D02*
X139479800Y-104200822D01*
X139479800Y-104200822D02*
X139575038Y-104486537D01*
X139575038Y-104486537D02*
X139575038Y-104962727D01*
X137575038Y-103153203D02*
X137575038Y-101915108D01*
X137575038Y-101915108D02*
X138336942Y-102581775D01*
X138336942Y-102581775D02*
X138336942Y-102296060D01*
X138336942Y-102296060D02*
X138432180Y-102105584D01*
X138432180Y-102105584D02*
X138527419Y-102010346D01*
X138527419Y-102010346D02*
X138717895Y-101915108D01*
X138717895Y-101915108D02*
X139194085Y-101915108D01*
X139194085Y-101915108D02*
X139384561Y-102010346D01*
X139384561Y-102010346D02*
X139479800Y-102105584D01*
X139479800Y-102105584D02*
X139575038Y-102296060D01*
X139575038Y-102296060D02*
X139575038Y-102867489D01*
X139575038Y-102867489D02*
X139479800Y-103057965D01*
X139479800Y-103057965D02*
X139384561Y-103153203D01*
X137765514Y-101153203D02*
X137670276Y-101057965D01*
X137670276Y-101057965D02*
X137575038Y-100867489D01*
X137575038Y-100867489D02*
X137575038Y-100391298D01*
X137575038Y-100391298D02*
X137670276Y-100200822D01*
X137670276Y-100200822D02*
X137765514Y-100105584D01*
X137765514Y-100105584D02*
X137955990Y-100010346D01*
X137955990Y-100010346D02*
X138146466Y-100010346D01*
X138146466Y-100010346D02*
X138432180Y-100105584D01*
X138432180Y-100105584D02*
X139575038Y-101248441D01*
X139575038Y-101248441D02*
X139575038Y-100010346D01*
X128526265Y-114058319D02*
X128573884Y-114010700D01*
X128573884Y-114010700D02*
X128669122Y-113963081D01*
X128669122Y-113963081D02*
X128907217Y-113963081D01*
X128907217Y-113963081D02*
X129002455Y-114010700D01*
X129002455Y-114010700D02*
X129050074Y-114058319D01*
X129050074Y-114058319D02*
X129097693Y-114153557D01*
X129097693Y-114153557D02*
X129097693Y-114248795D01*
X129097693Y-114248795D02*
X129050074Y-114391652D01*
X129050074Y-114391652D02*
X128478646Y-114963081D01*
X128478646Y-114963081D02*
X129097693Y-114963081D01*
X129954836Y-113963081D02*
X129764360Y-113963081D01*
X129764360Y-113963081D02*
X129669122Y-114010700D01*
X129669122Y-114010700D02*
X129621503Y-114058319D01*
X129621503Y-114058319D02*
X129526265Y-114201176D01*
X129526265Y-114201176D02*
X129478646Y-114391652D01*
X129478646Y-114391652D02*
X129478646Y-114772604D01*
X129478646Y-114772604D02*
X129526265Y-114867842D01*
X129526265Y-114867842D02*
X129573884Y-114915462D01*
X129573884Y-114915462D02*
X129669122Y-114963081D01*
X129669122Y-114963081D02*
X129859598Y-114963081D01*
X129859598Y-114963081D02*
X129954836Y-114915462D01*
X129954836Y-114915462D02*
X130002455Y-114867842D01*
X130002455Y-114867842D02*
X130050074Y-114772604D01*
X130050074Y-114772604D02*
X130050074Y-114534509D01*
X130050074Y-114534509D02*
X130002455Y-114439271D01*
X130002455Y-114439271D02*
X129954836Y-114391652D01*
X129954836Y-114391652D02*
X129859598Y-114344033D01*
X129859598Y-114344033D02*
X129669122Y-114344033D01*
X129669122Y-114344033D02*
X129573884Y-114391652D01*
X129573884Y-114391652D02*
X129526265Y-114439271D01*
X129526265Y-114439271D02*
X129478646Y-114534509D01*
X146363496Y-93690700D02*
X146268258Y-93643081D01*
X146268258Y-93643081D02*
X146125401Y-93643081D01*
X146125401Y-93643081D02*
X145982544Y-93690700D01*
X145982544Y-93690700D02*
X145887306Y-93785938D01*
X145887306Y-93785938D02*
X145839687Y-93881176D01*
X145839687Y-93881176D02*
X145792068Y-94071652D01*
X145792068Y-94071652D02*
X145792068Y-94214509D01*
X145792068Y-94214509D02*
X145839687Y-94404985D01*
X145839687Y-94404985D02*
X145887306Y-94500223D01*
X145887306Y-94500223D02*
X145982544Y-94595462D01*
X145982544Y-94595462D02*
X146125401Y-94643081D01*
X146125401Y-94643081D02*
X146220639Y-94643081D01*
X146220639Y-94643081D02*
X146363496Y-94595462D01*
X146363496Y-94595462D02*
X146411115Y-94547842D01*
X146411115Y-94547842D02*
X146411115Y-94214509D01*
X146411115Y-94214509D02*
X146220639Y-94214509D01*
X146839687Y-94643081D02*
X146839687Y-93643081D01*
X146839687Y-93643081D02*
X147411115Y-94643081D01*
X147411115Y-94643081D02*
X147411115Y-93643081D01*
X147887306Y-94643081D02*
X147887306Y-93643081D01*
X147887306Y-93643081D02*
X148125401Y-93643081D01*
X148125401Y-93643081D02*
X148268258Y-93690700D01*
X148268258Y-93690700D02*
X148363496Y-93785938D01*
X148363496Y-93785938D02*
X148411115Y-93881176D01*
X148411115Y-93881176D02*
X148458734Y-94071652D01*
X148458734Y-94071652D02*
X148458734Y-94214509D01*
X148458734Y-94214509D02*
X148411115Y-94404985D01*
X148411115Y-94404985D02*
X148363496Y-94500223D01*
X148363496Y-94500223D02*
X148268258Y-94595462D01*
X148268258Y-94595462D02*
X148125401Y-94643081D01*
X148125401Y-94643081D02*
X147887306Y-94643081D01*
X148000401Y-124123081D02*
X148095639Y-124123081D01*
X148095639Y-124123081D02*
X148190877Y-124170700D01*
X148190877Y-124170700D02*
X148238496Y-124218319D01*
X148238496Y-124218319D02*
X148286115Y-124313557D01*
X148286115Y-124313557D02*
X148333734Y-124504033D01*
X148333734Y-124504033D02*
X148333734Y-124742128D01*
X148333734Y-124742128D02*
X148286115Y-124932604D01*
X148286115Y-124932604D02*
X148238496Y-125027842D01*
X148238496Y-125027842D02*
X148190877Y-125075462D01*
X148190877Y-125075462D02*
X148095639Y-125123081D01*
X148095639Y-125123081D02*
X148000401Y-125123081D01*
X148000401Y-125123081D02*
X147905163Y-125075462D01*
X147905163Y-125075462D02*
X147857544Y-125027842D01*
X147857544Y-125027842D02*
X147809925Y-124932604D01*
X147809925Y-124932604D02*
X147762306Y-124742128D01*
X147762306Y-124742128D02*
X147762306Y-124504033D01*
X147762306Y-124504033D02*
X147809925Y-124313557D01*
X147809925Y-124313557D02*
X147857544Y-124218319D01*
X147857544Y-124218319D02*
X147905163Y-124170700D01*
X147905163Y-124170700D02*
X148000401Y-124123081D01*
X147381353Y-120043081D02*
X146809925Y-120043081D01*
X147095639Y-120043081D02*
X147095639Y-119043081D01*
X147095639Y-119043081D02*
X147000401Y-119185938D01*
X147000401Y-119185938D02*
X146905163Y-119281176D01*
X146905163Y-119281176D02*
X146809925Y-119328795D01*
X148238496Y-119043081D02*
X148048020Y-119043081D01*
X148048020Y-119043081D02*
X147952782Y-119090700D01*
X147952782Y-119090700D02*
X147905163Y-119138319D01*
X147905163Y-119138319D02*
X147809925Y-119281176D01*
X147809925Y-119281176D02*
X147762306Y-119471652D01*
X147762306Y-119471652D02*
X147762306Y-119852604D01*
X147762306Y-119852604D02*
X147809925Y-119947842D01*
X147809925Y-119947842D02*
X147857544Y-119995462D01*
X147857544Y-119995462D02*
X147952782Y-120043081D01*
X147952782Y-120043081D02*
X148143258Y-120043081D01*
X148143258Y-120043081D02*
X148238496Y-119995462D01*
X148238496Y-119995462D02*
X148286115Y-119947842D01*
X148286115Y-119947842D02*
X148333734Y-119852604D01*
X148333734Y-119852604D02*
X148333734Y-119614509D01*
X148333734Y-119614509D02*
X148286115Y-119519271D01*
X148286115Y-119519271D02*
X148238496Y-119471652D01*
X148238496Y-119471652D02*
X148143258Y-119424033D01*
X148143258Y-119424033D02*
X147952782Y-119424033D01*
X147952782Y-119424033D02*
X147857544Y-119471652D01*
X147857544Y-119471652D02*
X147809925Y-119519271D01*
X147809925Y-119519271D02*
X147762306Y-119614509D01*
X128478646Y-103803081D02*
X129097693Y-103803081D01*
X129097693Y-103803081D02*
X128764360Y-104184033D01*
X128764360Y-104184033D02*
X128907217Y-104184033D01*
X128907217Y-104184033D02*
X129002455Y-104231652D01*
X129002455Y-104231652D02*
X129050074Y-104279271D01*
X129050074Y-104279271D02*
X129097693Y-104374509D01*
X129097693Y-104374509D02*
X129097693Y-104612604D01*
X129097693Y-104612604D02*
X129050074Y-104707842D01*
X129050074Y-104707842D02*
X129002455Y-104755462D01*
X129002455Y-104755462D02*
X128907217Y-104803081D01*
X128907217Y-104803081D02*
X128621503Y-104803081D01*
X128621503Y-104803081D02*
X128526265Y-104755462D01*
X128526265Y-104755462D02*
X128478646Y-104707842D01*
X129954836Y-104136414D02*
X129954836Y-104803081D01*
X129716741Y-103755462D02*
X129478646Y-104469747D01*
X129478646Y-104469747D02*
X130097693Y-104469747D01*
D12*
X115883333Y-63689580D02*
X115835714Y-63737200D01*
X115835714Y-63737200D02*
X115692857Y-63784819D01*
X115692857Y-63784819D02*
X115597619Y-63784819D01*
X115597619Y-63784819D02*
X115454762Y-63737200D01*
X115454762Y-63737200D02*
X115359524Y-63641961D01*
X115359524Y-63641961D02*
X115311905Y-63546723D01*
X115311905Y-63546723D02*
X115264286Y-63356247D01*
X115264286Y-63356247D02*
X115264286Y-63213390D01*
X115264286Y-63213390D02*
X115311905Y-63022914D01*
X115311905Y-63022914D02*
X115359524Y-62927676D01*
X115359524Y-62927676D02*
X115454762Y-62832438D01*
X115454762Y-62832438D02*
X115597619Y-62784819D01*
X115597619Y-62784819D02*
X115692857Y-62784819D01*
X115692857Y-62784819D02*
X115835714Y-62832438D01*
X115835714Y-62832438D02*
X115883333Y-62880057D01*
X116835714Y-63784819D02*
X116264286Y-63784819D01*
X116550000Y-63784819D02*
X116550000Y-62784819D01*
X116550000Y-62784819D02*
X116454762Y-62927676D01*
X116454762Y-62927676D02*
X116359524Y-63022914D01*
X116359524Y-63022914D02*
X116264286Y-63070533D01*
X112863333Y-85449580D02*
X112815714Y-85497200D01*
X112815714Y-85497200D02*
X112672857Y-85544819D01*
X112672857Y-85544819D02*
X112577619Y-85544819D01*
X112577619Y-85544819D02*
X112434762Y-85497200D01*
X112434762Y-85497200D02*
X112339524Y-85401961D01*
X112339524Y-85401961D02*
X112291905Y-85306723D01*
X112291905Y-85306723D02*
X112244286Y-85116247D01*
X112244286Y-85116247D02*
X112244286Y-84973390D01*
X112244286Y-84973390D02*
X112291905Y-84782914D01*
X112291905Y-84782914D02*
X112339524Y-84687676D01*
X112339524Y-84687676D02*
X112434762Y-84592438D01*
X112434762Y-84592438D02*
X112577619Y-84544819D01*
X112577619Y-84544819D02*
X112672857Y-84544819D01*
X112672857Y-84544819D02*
X112815714Y-84592438D01*
X112815714Y-84592438D02*
X112863333Y-84640057D01*
X113244286Y-84640057D02*
X113291905Y-84592438D01*
X113291905Y-84592438D02*
X113387143Y-84544819D01*
X113387143Y-84544819D02*
X113625238Y-84544819D01*
X113625238Y-84544819D02*
X113720476Y-84592438D01*
X113720476Y-84592438D02*
X113768095Y-84640057D01*
X113768095Y-84640057D02*
X113815714Y-84735295D01*
X113815714Y-84735295D02*
X113815714Y-84830533D01*
X113815714Y-84830533D02*
X113768095Y-84973390D01*
X113768095Y-84973390D02*
X113196667Y-85544819D01*
X113196667Y-85544819D02*
X113815714Y-85544819D01*
%TO.C,J2*%
D11*
X114880000Y-148640000D02*
X136580000Y-148640000D01*
X136580000Y-161440000D01*
X114880000Y-161440000D01*
X114880000Y-148640000D01*
X121230000Y-154440000D02*
X130230000Y-154440000D01*
X130230000Y-161440000D01*
X121230000Y-161440000D01*
X121230000Y-154440000D01*
D13*
%TO.C,C4*%
X107870000Y-98960000D02*
X113110000Y-98960000D01*
X107870000Y-99297000D02*
X107870000Y-98960000D01*
X107870000Y-101700000D02*
X107870000Y-101363000D01*
X113110000Y-98960000D02*
X113110000Y-99297000D01*
X113110000Y-101363000D02*
X113110000Y-101700000D01*
X113110000Y-101700000D02*
X107870000Y-101700000D01*
%TO.C,C3*%
X107870000Y-92610000D02*
X113110000Y-92610000D01*
X107870000Y-92947000D02*
X107870000Y-92610000D01*
X107870000Y-95350000D02*
X107870000Y-95013000D01*
X113110000Y-92610000D02*
X113110000Y-92947000D01*
X113110000Y-95013000D02*
X113110000Y-95350000D01*
X113110000Y-95350000D02*
X107870000Y-95350000D01*
%TO.C,J1*%
X122945000Y-73955331D02*
X122945000Y-61615331D01*
X143720000Y-74849669D02*
X143970000Y-74416656D01*
X143970000Y-74416656D02*
X144220000Y-74849669D01*
X144220000Y-74849669D02*
X143720000Y-74849669D01*
X153915000Y-61615331D02*
X153915000Y-73955331D01*
X153915000Y-73955331D02*
X122945000Y-73955331D01*
%TO.C,U1*%
D11*
X126055000Y-87135662D02*
X151055000Y-87135662D01*
X151055000Y-144135662D01*
X126055000Y-144135662D01*
X126055000Y-87135662D01*
D13*
%TO.C,C1*%
X111640302Y-66265000D02*
X112440302Y-66265000D01*
X112040302Y-65865000D02*
X112040302Y-66665000D01*
X116050000Y-64500000D02*
X116050000Y-72660000D01*
X116090000Y-64500000D02*
X116090000Y-72660000D01*
X116130000Y-64501000D02*
X116130000Y-72659000D01*
X116170000Y-64502000D02*
X116170000Y-72658000D01*
X116210000Y-64503000D02*
X116210000Y-72657000D01*
X116250000Y-64505000D02*
X116250000Y-72655000D01*
X116290000Y-64507000D02*
X116290000Y-72653000D01*
X116330000Y-64510000D02*
X116330000Y-72650000D01*
X116370000Y-64512000D02*
X116370000Y-72648000D01*
X116410000Y-64516000D02*
X116410000Y-72644000D01*
X116450000Y-64519000D02*
X116450000Y-72641000D01*
X116490000Y-64524000D02*
X116490000Y-72636000D01*
X116530000Y-64528000D02*
X116530000Y-72632000D01*
X116570000Y-64533000D02*
X116570000Y-72627000D01*
X116610000Y-64538000D02*
X116610000Y-72622000D01*
X116650000Y-64544000D02*
X116650000Y-72616000D01*
X116690000Y-64550000D02*
X116690000Y-72610000D01*
X116730000Y-64557000D02*
X116730000Y-72603000D01*
X116770000Y-64563000D02*
X116770000Y-67540000D01*
X116770000Y-69620000D02*
X116770000Y-72597000D01*
X116810000Y-64571000D02*
X116810000Y-67540000D01*
X116810000Y-69620000D02*
X116810000Y-72589000D01*
X116850000Y-64578000D02*
X116850000Y-67540000D01*
X116850000Y-69620000D02*
X116850000Y-72582000D01*
X116890000Y-64587000D02*
X116890000Y-67540000D01*
X116890000Y-69620000D02*
X116890000Y-72573000D01*
X116930000Y-64595000D02*
X116930000Y-67540000D01*
X116930000Y-69620000D02*
X116930000Y-72565000D01*
X116970000Y-64604000D02*
X116970000Y-67540000D01*
X116970000Y-69620000D02*
X116970000Y-72556000D01*
X117010000Y-64613000D02*
X117010000Y-67540000D01*
X117010000Y-69620000D02*
X117010000Y-72547000D01*
X117050000Y-64623000D02*
X117050000Y-67540000D01*
X117050000Y-69620000D02*
X117050000Y-72537000D01*
X117090000Y-64633000D02*
X117090000Y-67540000D01*
X117090000Y-69620000D02*
X117090000Y-72527000D01*
X117130000Y-64644000D02*
X117130000Y-67540000D01*
X117130000Y-69620000D02*
X117130000Y-72516000D01*
X117170000Y-64655000D02*
X117170000Y-67540000D01*
X117170000Y-69620000D02*
X117170000Y-72505000D01*
X117210000Y-64667000D02*
X117210000Y-67540000D01*
X117210000Y-69620000D02*
X117210000Y-72493000D01*
X117250000Y-64679000D02*
X117250000Y-67540000D01*
X117250000Y-69620000D02*
X117250000Y-72481000D01*
X117290000Y-64691000D02*
X117290000Y-67540000D01*
X117290000Y-69620000D02*
X117290000Y-72469000D01*
X117330000Y-64704000D02*
X117330000Y-67540000D01*
X117330000Y-69620000D02*
X117330000Y-72456000D01*
X117370000Y-64717000D02*
X117370000Y-67540000D01*
X117370000Y-69620000D02*
X117370000Y-72443000D01*
X117410000Y-64731000D02*
X117410000Y-67540000D01*
X117410000Y-69620000D02*
X117410000Y-72429000D01*
X117450000Y-64745000D02*
X117450000Y-67540000D01*
X117450000Y-69620000D02*
X117450000Y-72415000D01*
X117490000Y-64760000D02*
X117490000Y-67540000D01*
X117490000Y-69620000D02*
X117490000Y-72400000D01*
X117530000Y-64775000D02*
X117530000Y-67540000D01*
X117530000Y-69620000D02*
X117530000Y-72385000D01*
X117570000Y-64791000D02*
X117570000Y-67540000D01*
X117570000Y-69620000D02*
X117570000Y-72369000D01*
X117610000Y-64807000D02*
X117610000Y-67540000D01*
X117610000Y-69620000D02*
X117610000Y-72353000D01*
X117650000Y-64823000D02*
X117650000Y-67540000D01*
X117650000Y-69620000D02*
X117650000Y-72337000D01*
X117690000Y-64840000D02*
X117690000Y-67540000D01*
X117690000Y-69620000D02*
X117690000Y-72320000D01*
X117730000Y-64858000D02*
X117730000Y-67540000D01*
X117730000Y-69620000D02*
X117730000Y-72302000D01*
X117770000Y-64876000D02*
X117770000Y-67540000D01*
X117770000Y-69620000D02*
X117770000Y-72284000D01*
X117810000Y-64895000D02*
X117810000Y-67540000D01*
X117810000Y-69620000D02*
X117810000Y-72265000D01*
X117850000Y-64914000D02*
X117850000Y-67540000D01*
X117850000Y-69620000D02*
X117850000Y-72246000D01*
X117890000Y-64934000D02*
X117890000Y-67540000D01*
X117890000Y-69620000D02*
X117890000Y-72226000D01*
X117930000Y-64954000D02*
X117930000Y-67540000D01*
X117930000Y-69620000D02*
X117930000Y-72206000D01*
X117970000Y-64975000D02*
X117970000Y-67540000D01*
X117970000Y-69620000D02*
X117970000Y-72185000D01*
X118010000Y-64996000D02*
X118010000Y-67540000D01*
X118010000Y-69620000D02*
X118010000Y-72164000D01*
X118050000Y-65018000D02*
X118050000Y-67540000D01*
X118050000Y-69620000D02*
X118050000Y-72142000D01*
X118090000Y-65041000D02*
X118090000Y-67540000D01*
X118090000Y-69620000D02*
X118090000Y-72119000D01*
X118130000Y-65064000D02*
X118130000Y-67540000D01*
X118130000Y-69620000D02*
X118130000Y-72096000D01*
X118170000Y-65087000D02*
X118170000Y-67540000D01*
X118170000Y-69620000D02*
X118170000Y-72073000D01*
X118210000Y-65112000D02*
X118210000Y-67540000D01*
X118210000Y-69620000D02*
X118210000Y-72048000D01*
X118250000Y-65137000D02*
X118250000Y-67540000D01*
X118250000Y-69620000D02*
X118250000Y-72023000D01*
X118290000Y-65162000D02*
X118290000Y-67540000D01*
X118290000Y-69620000D02*
X118290000Y-71998000D01*
X118330000Y-65188000D02*
X118330000Y-67540000D01*
X118330000Y-69620000D02*
X118330000Y-71972000D01*
X118370000Y-65215000D02*
X118370000Y-67540000D01*
X118370000Y-69620000D02*
X118370000Y-71945000D01*
X118410000Y-65243000D02*
X118410000Y-67540000D01*
X118410000Y-69620000D02*
X118410000Y-71917000D01*
X118450000Y-65271000D02*
X118450000Y-67540000D01*
X118450000Y-69620000D02*
X118450000Y-71889000D01*
X118490000Y-65300000D02*
X118490000Y-67540000D01*
X118490000Y-69620000D02*
X118490000Y-71860000D01*
X118530000Y-65330000D02*
X118530000Y-67540000D01*
X118530000Y-69620000D02*
X118530000Y-71830000D01*
X118570000Y-65361000D02*
X118570000Y-67540000D01*
X118570000Y-69620000D02*
X118570000Y-71799000D01*
X118610000Y-65392000D02*
X118610000Y-67540000D01*
X118610000Y-69620000D02*
X118610000Y-71768000D01*
X118650000Y-65424000D02*
X118650000Y-67540000D01*
X118650000Y-69620000D02*
X118650000Y-71736000D01*
X118690000Y-65457000D02*
X118690000Y-67540000D01*
X118690000Y-69620000D02*
X118690000Y-71703000D01*
X118730000Y-65491000D02*
X118730000Y-67540000D01*
X118730000Y-69620000D02*
X118730000Y-71669000D01*
X118770000Y-65525000D02*
X118770000Y-67540000D01*
X118770000Y-69620000D02*
X118770000Y-71635000D01*
X118810000Y-65561000D02*
X118810000Y-67540000D01*
X118810000Y-69620000D02*
X118810000Y-71599000D01*
X118850000Y-65598000D02*
X118850000Y-71562000D01*
X118890000Y-65635000D02*
X118890000Y-71525000D01*
X118930000Y-65674000D02*
X118930000Y-71486000D01*
X118970000Y-65713000D02*
X118970000Y-71447000D01*
X119010000Y-65754000D02*
X119010000Y-71406000D01*
X119050000Y-65796000D02*
X119050000Y-71364000D01*
X119090000Y-65839000D02*
X119090000Y-71321000D01*
X119130000Y-65884000D02*
X119130000Y-71276000D01*
X119170000Y-65929000D02*
X119170000Y-71231000D01*
X119210000Y-65976000D02*
X119210000Y-71184000D01*
X119250000Y-66025000D02*
X119250000Y-71135000D01*
X119290000Y-66075000D02*
X119290000Y-71085000D01*
X119330000Y-66127000D02*
X119330000Y-71033000D01*
X119370000Y-66180000D02*
X119370000Y-70980000D01*
X119410000Y-66236000D02*
X119410000Y-70924000D01*
X119450000Y-66293000D02*
X119450000Y-70867000D01*
X119490000Y-66353000D02*
X119490000Y-70807000D01*
X119530000Y-66415000D02*
X119530000Y-70745000D01*
X119570000Y-66479000D02*
X119570000Y-70681000D01*
X119610000Y-66546000D02*
X119610000Y-70614000D01*
X119650000Y-66616000D02*
X119650000Y-70544000D01*
X119690000Y-66690000D02*
X119690000Y-70470000D01*
X119730000Y-66767000D02*
X119730000Y-70393000D01*
X119770000Y-66849000D02*
X119770000Y-70311000D01*
X119810000Y-66936000D02*
X119810000Y-70224000D01*
X119850000Y-67028000D02*
X119850000Y-70132000D01*
X119890000Y-67127000D02*
X119890000Y-70033000D01*
X119930000Y-67234000D02*
X119930000Y-69926000D01*
X119970000Y-67352000D02*
X119970000Y-69808000D01*
X120010000Y-67483000D02*
X120010000Y-69677000D01*
X120050000Y-67633000D02*
X120050000Y-69527000D01*
X120090000Y-67812000D02*
X120090000Y-69348000D01*
X120130000Y-68047000D02*
X120130000Y-69113000D01*
X120170000Y-68580000D02*
G75*
G02*
X111930000Y-68580000I-4120000J0D01*
G01*
X111930000Y-68580000D02*
G75*
G02*
X120170000Y-68580000I4120000J0D01*
G01*
%TO.C,C2*%
X110410000Y-86260000D02*
X115650000Y-86260000D01*
X110410000Y-86597000D02*
X110410000Y-86260000D01*
X110410000Y-89000000D02*
X110410000Y-88663000D01*
X115650000Y-86260000D02*
X115650000Y-86597000D01*
X115650000Y-88663000D02*
X115650000Y-89000000D01*
X115650000Y-89000000D02*
X110410000Y-89000000D01*
%TD*%
M02*
