%TF.GenerationSoftware,KiCad,Pcbnew,9.0.5*%
%TF.CreationDate,2025-10-04T12:42:16+02:00*%
%TF.ProjectId,elastick_adapter,656c6173-7469-4636-9b5f-616461707465,rev?*%
%TF.SameCoordinates,Original*%
%TF.FileFunction,Copper,L2,Bot*%
%TF.FilePolarity,Positive*%
%FSLAX46Y46*%
G04 Gerber Fmt 4.6, Leading zero omitted, Abs format (unit mm)*
G04 Created by KiCad (PCBNEW 9.0.5) date 2025-10-04 12:42:16*
%MOMM*%
%LPD*%
G01*
G04 APERTURE LIST*
G04 Aperture macros list*
%AMRoundRect*
0 Rectangle with rounded corners*
0 $1 Rounding radius*
0 $2 $3 $4 $5 $6 $7 $8 $9 X,Y pos of 4 corners*
0 Add a 4 corners polygon primitive as box body*
4,1,4,$2,$3,$4,$5,$6,$7,$8,$9,$2,$3,0*
0 Add four circle primitives for the rounded corners*
1,1,$1+$1,$2,$3*
1,1,$1+$1,$4,$5*
1,1,$1+$1,$6,$7*
1,1,$1+$1,$8,$9*
0 Add four rect primitives between the rounded corners*
20,1,$1+$1,$2,$3,$4,$5,0*
20,1,$1+$1,$4,$5,$6,$7,0*
20,1,$1+$1,$6,$7,$8,$9,0*
20,1,$1+$1,$8,$9,$2,$3,0*%
G04 Aperture macros list end*
%TA.AperFunction,ComponentPad*%
%ADD10C,1.800000*%
%TD*%
%TA.AperFunction,WasherPad*%
%ADD11C,3.500000*%
%TD*%
%TA.AperFunction,ComponentPad*%
%ADD12C,1.600000*%
%TD*%
%TA.AperFunction,ComponentPad*%
%ADD13C,4.000000*%
%TD*%
%TA.AperFunction,ComponentPad*%
%ADD14R,1.600000X1.600000*%
%TD*%
%TA.AperFunction,ComponentPad*%
%ADD15RoundRect,0.250000X-0.550000X-0.550000X0.550000X-0.550000X0.550000X0.550000X-0.550000X0.550000X0*%
%TD*%
%TA.AperFunction,ComponentPad*%
%ADD16R,2.000000X2.000000*%
%TD*%
%TA.AperFunction,ComponentPad*%
%ADD17C,2.000000*%
%TD*%
%TA.AperFunction,ComponentPad*%
%ADD18R,3.200000X2.000000*%
%TD*%
%TA.AperFunction,ComponentPad*%
%ADD19O,3.500000X2.200000*%
%TD*%
%TA.AperFunction,ComponentPad*%
%ADD20R,2.500000X1.500000*%
%TD*%
%TA.AperFunction,ComponentPad*%
%ADD21O,2.500000X1.500000*%
%TD*%
%TA.AperFunction,Conductor*%
%ADD22C,0.600000*%
%TD*%
G04 APERTURE END LIST*
D10*
%TO.P,J2,1,VBUS*%
%TO.N,unconnected-(J2-VBUS-Pad1)*%
X119380000Y-149840000D03*
%TO.P,J2,2,GND*%
%TO.N,unconnected-(J2-GND-Pad2)*%
X121920000Y-149840000D03*
%TO.P,J2,3,CC1*%
%TO.N,unconnected-(J2-CC1-Pad3)*%
X124460000Y-149840000D03*
%TO.P,J2,4,D-*%
%TO.N,unconnected-(J2-D--Pad4)*%
X127000000Y-149840000D03*
%TO.P,J2,5,D+*%
%TO.N,unconnected-(J2-D+-Pad5)*%
X129540000Y-149840000D03*
%TO.P,J2,6,CC2*%
%TO.N,unconnected-(J2-CC2-Pad6)*%
X132080000Y-149840000D03*
%TD*%
D11*
%TO.P,REF\u002A\u002A,*%
%TO.N,*%
X165735000Y-156210000D03*
%TD*%
%TO.P,REF\u002A\u002A,*%
%TO.N,*%
X165735000Y-66040000D03*
%TD*%
D12*
%TO.P,C4,1*%
%TO.N,/GND_NET*%
X107990000Y-100330000D03*
%TO.P,C4,2*%
%TO.N,Net-(C4-Pad2)*%
X112990000Y-100330000D03*
%TD*%
%TO.P,C3,1*%
%TO.N,/GND_NET*%
X107990000Y-93980000D03*
%TO.P,C3,2*%
%TO.N,Net-(C3-Pad2)*%
X112990000Y-93980000D03*
%TD*%
D11*
%TO.P,REF\u002A\u002A,*%
%TO.N,*%
X154940000Y-105410000D03*
%TD*%
%TO.P,REF\u002A\u002A,*%
%TO.N,*%
X116840000Y-82550000D03*
%TD*%
%TO.P,REF\u002A\u002A,*%
%TO.N,*%
X109220000Y-66040000D03*
%TD*%
%TO.P,REF\u002A\u002A,*%
%TO.N,*%
X109220000Y-156210000D03*
%TD*%
D13*
%TO.P,J1,0,PAD*%
%TO.N,unconnected-(J1-PAD-Pad0)_1*%
X150930000Y-70675331D03*
%TO.N,unconnected-(J1-PAD-Pad0)*%
X125930000Y-70675331D03*
D14*
%TO.P,J1,1,1*%
%TO.N,Net-(U1-4)*%
X143970000Y-72095331D03*
D12*
%TO.P,J1,2,2*%
%TO.N,Net-(U1-17)*%
X141200000Y-72095331D03*
%TO.P,J1,3,3*%
%TO.N,Net-(U1-26)*%
X138430000Y-72095331D03*
%TO.P,J1,4,4*%
%TO.N,Net-(U1-14)*%
X135660000Y-72095331D03*
%TO.P,J1,5,5*%
%TO.N,Net-(C4-Pad2)*%
X132890000Y-72095331D03*
%TO.P,J1,6,6*%
%TO.N,Net-(U1-16)*%
X142585000Y-69255331D03*
%TO.P,J1,7,7*%
%TO.N,Net-(U1-25)*%
X139815000Y-69255331D03*
%TO.P,J1,8,8*%
%TO.N,Net-(U1-27)*%
X137045000Y-69255331D03*
%TO.P,J1,9,9*%
%TO.N,Net-(C3-Pad2)*%
X134275000Y-69255331D03*
%TD*%
D11*
%TO.P,REF\u002A\u002A,*%
%TO.N,*%
X154940000Y-82550000D03*
%TD*%
%TO.P,REF\u002A\u002A,*%
%TO.N,*%
X116840000Y-105410000D03*
%TD*%
D10*
%TO.P,U1,1,3v*%
%TO.N,Net-(DS1-vcc)*%
X127125000Y-94135662D03*
%TO.P,U1,2,reset*%
%TO.N,unconnected-(U1-reset-Pad2)*%
X127125000Y-96675662D03*
%TO.P,U1,3,36*%
%TO.N,unconnected-(U1-36-Pad3)*%
X127125000Y-99215662D03*
%TO.P,U1,4,39*%
%TO.N,unconnected-(U1-39-Pad4)*%
X127125000Y-101755662D03*
%TO.P,U1,5,34*%
%TO.N,unconnected-(U1-34-Pad5)*%
X127125000Y-104295662D03*
%TO.P,U1,6,32*%
%TO.N,unconnected-(U1-32-Pad6)*%
X127125000Y-106835662D03*
%TO.P,U1,7,33*%
%TO.N,unconnected-(U1-33-Pad7)*%
X127125000Y-109375662D03*
%TO.P,U1,8,25*%
%TO.N,Net-(U1-25)*%
X127125000Y-111915662D03*
%TO.P,U1,9,26*%
%TO.N,Net-(U1-26)*%
X127125000Y-114455662D03*
%TO.P,U1,10,27*%
%TO.N,Net-(U1-27)*%
X127125000Y-116995662D03*
%TO.P,U1,11,14*%
%TO.N,Net-(U1-14)*%
X127125000Y-119535662D03*
%TO.P,U1,12,12*%
%TO.N,Net-(C3-Pad2)*%
X127125000Y-122075662D03*
%TO.P,U1,13,13*%
%TO.N,Net-(C4-Pad2)*%
X127125000Y-124615662D03*
%TO.P,U1,14,enable*%
%TO.N,Net-(SW1-C)*%
X127125000Y-127155662D03*
%TO.P,U1,15,usb*%
%TO.N,unconnected-(U1-usb-Pad15)*%
X127125000Y-129695662D03*
%TO.P,U1,16,bat*%
%TO.N,unconnected-(U1-bat-Pad16)*%
X127125000Y-132235662D03*
%TO.P,U1,17,gnd*%
%TO.N,/GND_NET*%
X149985000Y-94135662D03*
%TO.P,U1,18,23*%
%TO.N,unconnected-(U1-23-Pad18)*%
X149985000Y-96675662D03*
%TO.P,U1,19,22*%
%TO.N,Net-(DS1-scl)*%
X149985000Y-99215662D03*
%TO.P,U1,20,1*%
%TO.N,unconnected-(U1-1-Pad20)*%
X149985000Y-101755662D03*
%TO.P,U1,21,3*%
%TO.N,unconnected-(U1-3-Pad21)*%
X149985000Y-104295662D03*
%TO.P,U1,22,21*%
%TO.N,Net-(DS1-sda)*%
X149985000Y-106835662D03*
%TO.P,U1,23,19*%
%TO.N,Net-(U1-19)*%
X149985000Y-109375662D03*
%TO.P,U1,24,18*%
%TO.N,Net-(U1-18)*%
X149985000Y-111915662D03*
%TO.P,U1,25,5*%
%TO.N,Net-(U1-5)*%
X149985000Y-114455662D03*
%TO.P,U1,26,17*%
%TO.N,Net-(U1-17)*%
X149985000Y-116995662D03*
%TO.P,U1,27,16*%
%TO.N,Net-(U1-16)*%
X149985000Y-119535662D03*
%TO.P,U1,28,4*%
%TO.N,Net-(U1-4)*%
X149985000Y-122075662D03*
%TO.P,U1,29,0*%
%TO.N,unconnected-(U1-0-Pad29)*%
X149985000Y-124615662D03*
%TO.P,U1,30,2*%
%TO.N,unconnected-(U1-2-Pad30)*%
X149985000Y-127155662D03*
%TO.P,U1,31,15*%
%TO.N,unconnected-(U1-15-Pad31)*%
X149985000Y-129695662D03*
%TO.P,U1,32,gnd*%
%TO.N,/GND_NET*%
X149985000Y-132235662D03*
%TD*%
D15*
%TO.P,C1,1*%
%TO.N,Net-(DS1-vcc)*%
X114300000Y-68580000D03*
D12*
%TO.P,C1,2*%
%TO.N,/GND_NET*%
X117800000Y-68580000D03*
%TD*%
%TO.P,C2,1*%
%TO.N,Net-(DS1-vcc)*%
X115530000Y-87630000D03*
%TO.P,C2,2*%
%TO.N,/GND_NET*%
X110530000Y-87630000D03*
%TD*%
D10*
%TO.P,DS1,1,vcc*%
%TO.N,Net-(DS1-vcc)*%
X125180000Y-138180000D03*
%TO.P,DS1,2,gnd*%
%TO.N,/GND_NET*%
X127720000Y-138180000D03*
%TO.P,DS1,3,scl*%
%TO.N,Net-(DS1-scl)*%
X130260000Y-138180000D03*
%TO.P,DS1,4,sda*%
%TO.N,Net-(DS1-sda)*%
X132800000Y-138180000D03*
%TD*%
D16*
%TO.P,SW2,A,A*%
%TO.N,/GND_NET*%
X168000000Y-126550000D03*
D17*
%TO.P,SW2,B,B*%
%TO.N,Net-(U1-18)*%
X168000000Y-131550000D03*
%TO.P,SW2,C,C*%
%TO.N,Net-(U1-19)*%
X168000000Y-129050000D03*
D18*
%TO.P,SW2,MP*%
%TO.N,N/C*%
X160500000Y-134650000D03*
X160500000Y-123450000D03*
D17*
%TO.P,SW2,S1,S1*%
%TO.N,Net-(U1-5)*%
X153500000Y-131550000D03*
%TO.P,SW2,S2,S2*%
%TO.N,/GND_NET*%
X153500000Y-126550000D03*
%TD*%
D19*
%TO.P,SW1,*%
%TO.N,*%
X110760000Y-135550000D03*
X110760000Y-122550000D03*
D20*
%TO.P,SW1,1,A*%
%TO.N,unconnected-(SW1-A-Pad1)*%
X111760000Y-132050000D03*
D21*
%TO.P,SW1,2,B*%
%TO.N,/GND_NET*%
X111760000Y-129050000D03*
%TO.P,SW1,3,C*%
%TO.N,Net-(SW1-C)*%
X111760000Y-126050000D03*
%TD*%
D22*
%TO.N,Net-(U1-19)*%
X158260000Y-129050000D02*
X168000000Y-129050000D01*
X157480000Y-128270000D02*
X158260000Y-129050000D01*
X157480000Y-128270000D02*
X157480000Y-110490000D01*
X156365662Y-109375662D02*
X149985000Y-109375662D01*
X157480000Y-110490000D02*
X156365662Y-109375662D01*
%TO.N,Net-(U1-18)*%
X155095662Y-111915662D02*
X149985000Y-111915662D01*
X156210000Y-113030000D02*
X155095662Y-111915662D01*
X168000000Y-131550000D02*
X156950000Y-131550000D01*
X156210000Y-130810000D02*
X156210000Y-113030000D01*
X156950000Y-131550000D02*
X156210000Y-130810000D01*
%TO.N,Net-(U1-5)*%
X155001000Y-130049000D02*
X155001000Y-119471662D01*
X155001000Y-119471662D02*
X149985000Y-114455662D01*
X153500000Y-131550000D02*
X155001000Y-130049000D01*
%TO.N,Net-(DS1-vcc)*%
X129540000Y-93980000D02*
X133350000Y-97790000D01*
X129384338Y-94135662D02*
X129540000Y-93980000D01*
X133350000Y-97790000D02*
X133350000Y-129540000D01*
X113030000Y-69850000D02*
X114300000Y-68580000D01*
X126319000Y-137041000D02*
X125180000Y-138180000D01*
X120650000Y-87660662D02*
X120650000Y-87630000D01*
X113030000Y-87630000D02*
X113030000Y-69850000D01*
X120650000Y-87630000D02*
X113030000Y-87630000D01*
X115530000Y-87630000D02*
X120650000Y-87630000D01*
X133350000Y-129540000D02*
X126319000Y-136571000D01*
X127125000Y-94135662D02*
X120650000Y-87660662D01*
X126319000Y-136571000D02*
X126319000Y-137041000D01*
X127125000Y-94135662D02*
X129384338Y-94135662D01*
%TO.N,Net-(DS1-sda)*%
X149985000Y-106835662D02*
X138274338Y-106835662D01*
X137160000Y-133820000D02*
X132800000Y-138180000D01*
X137160000Y-107950000D02*
X137160000Y-133820000D01*
X138274338Y-106835662D02*
X137160000Y-107950000D01*
%TO.N,Net-(DS1-scl)*%
X135890000Y-106680000D02*
X135890000Y-132550000D01*
X135890000Y-132550000D02*
X130260000Y-138180000D01*
X149985000Y-99215662D02*
X143354338Y-99215662D01*
X143354338Y-99215662D02*
X135890000Y-106680000D01*
%TO.N,Net-(C3-Pad2)*%
X123190000Y-121920000D02*
X123345662Y-122075662D01*
X123190000Y-93980000D02*
X123190000Y-121920000D01*
X112990000Y-93980000D02*
X123190000Y-93980000D01*
X123345662Y-122075662D02*
X127125000Y-122075662D01*
%TO.N,Net-(C4-Pad2)*%
X122075662Y-124615662D02*
X127125000Y-124615662D01*
X121920000Y-124460000D02*
X122075662Y-124615662D01*
X112990000Y-100330000D02*
X121920000Y-100330000D01*
X121920000Y-100330000D02*
X121920000Y-124460000D01*
%TO.N,Net-(SW1-C)*%
X111760000Y-126050000D02*
X120970000Y-126050000D01*
X126969338Y-127000000D02*
X127125000Y-127155662D01*
X120970000Y-126050000D02*
X122075662Y-127155662D01*
X122075662Y-127155662D02*
X127125000Y-127155662D01*
%TO.N,/GND_NET*%
X117620000Y-129050000D02*
X118110000Y-129540000D01*
X117800000Y-68580000D02*
X117800000Y-65730000D01*
X110490000Y-68580000D02*
X110490000Y-87590000D01*
X114300000Y-64770000D02*
X110490000Y-68580000D01*
X108730000Y-129050000D02*
X111760000Y-129050000D01*
X153500000Y-128720662D02*
X153500000Y-126550000D01*
X117800000Y-65730000D02*
X116840000Y-64770000D01*
X161134338Y-94135662D02*
X161290000Y-93980000D01*
X118110000Y-129540000D02*
X118110000Y-139700000D01*
X107950000Y-128270000D02*
X108730000Y-129050000D01*
X107990000Y-93385000D02*
X110530000Y-90845000D01*
X161290000Y-93980000D02*
X161290000Y-77470000D01*
X149985000Y-94135662D02*
X161134338Y-94135662D01*
X111760000Y-129050000D02*
X117620000Y-129050000D01*
X149937306Y-94183356D02*
X149985000Y-94135662D01*
X117800000Y-77160000D02*
X117800000Y-68580000D01*
X134620000Y-105410000D02*
X145846644Y-94183356D01*
X149985000Y-132235662D02*
X153500000Y-128720662D01*
X107950000Y-94020000D02*
X107950000Y-128270000D01*
X107990000Y-93980000D02*
X107990000Y-93385000D01*
X118110000Y-139700000D02*
X119380000Y-140970000D01*
X134620000Y-131280000D02*
X134620000Y-105410000D01*
X127720000Y-138180000D02*
X134620000Y-131280000D01*
X116840000Y-64770000D02*
X114300000Y-64770000D01*
X107990000Y-93980000D02*
X107950000Y-94020000D01*
X168000000Y-126550000D02*
X168000000Y-100690000D01*
X149985000Y-132235662D02*
X149985000Y-140970000D01*
X110530000Y-90845000D02*
X110530000Y-87630000D01*
X168000000Y-100690000D02*
X161290000Y-93980000D01*
X153035000Y-77470000D02*
X148590000Y-81915000D01*
X149985000Y-140970000D02*
X119380000Y-140970000D01*
X161290000Y-77470000D02*
X153035000Y-77470000D01*
X148590000Y-81915000D02*
X122555000Y-81915000D01*
X145846644Y-94183356D02*
X149937306Y-94183356D01*
X122555000Y-81915000D02*
X117800000Y-77160000D01*
X110490000Y-87590000D02*
X110530000Y-87630000D01*
%TD*%
%TA.AperFunction,Conductor*%
%TO.N,/GND_NET*%
G36*
X168853039Y-69869685D02*
G01*
X168898794Y-69922489D01*
X168910000Y-69974000D01*
X168910000Y-118621000D01*
X168890315Y-118688039D01*
X168837511Y-118733794D01*
X168786000Y-118745000D01*
X160144000Y-118745000D01*
X160076961Y-118725315D01*
X160031206Y-118672511D01*
X160020000Y-118621000D01*
X160020000Y-69974000D01*
X160039685Y-69906961D01*
X160092489Y-69861206D01*
X160144000Y-69850000D01*
X168786000Y-69850000D01*
X168853039Y-69869685D01*
G37*
%TD.AperFunction*%
%TD*%
M02*
