M48
; DRILL file {KiCad 9.0.5} date 2025-10-04T12:44:12+0200
; FORMAT={-:-/ absolute / metric / decimal}
; #@! TF.CreationDate,2025-10-04T12:44:12+02:00
; #@! TF.GenerationSoftware,Kicad,Pcbnew,9.0.5
; #@! TF.FileFunction,Plated,1,2,PTH
FMAT,2
METRIC
; #@! TA.AperFunction,Plated,PTH,ComponentDrill
T1C0.600
; #@! TA.AperFunction,Plated,PTH,ComponentDrill
T2C0.800
; #@! TA.AperFunction,Plated,PTH,ComponentDrill
T3C1.000
; #@! TA.AperFunction,Plated,PTH,ComponentDrill
T4C1.500
; #@! TA.AperFunction,Plated,PTH,ComponentDrill
T5C3.200
%
G90
G05
T2
X107.99Y-93.98
X107.99Y-100.33
X110.53Y-87.63
X112.99Y-93.98
X112.99Y-100.33
X114.3Y-68.58
X115.53Y-87.63
X117.8Y-68.58
X119.38Y-149.84
X121.92Y-149.84
X124.46Y-149.84
X125.18Y-138.18
X127.0Y-149.84
X127.125Y-94.136
X127.125Y-96.676
X127.125Y-99.216
X127.125Y-101.756
X127.125Y-104.296
X127.125Y-106.836
X127.125Y-109.376
X127.125Y-111.916
X127.125Y-114.456
X127.125Y-116.996
X127.125Y-119.536
X127.125Y-122.076
X127.125Y-124.616
X127.125Y-127.156
X127.125Y-129.696
X127.125Y-132.236
X127.72Y-138.18
X129.54Y-149.84
X130.26Y-138.18
X132.08Y-149.84
X132.8Y-138.18
X149.985Y-94.136
X149.985Y-96.676
X149.985Y-99.216
X149.985Y-101.756
X149.985Y-104.296
X149.985Y-106.836
X149.985Y-109.376
X149.985Y-111.916
X149.985Y-114.456
X149.985Y-116.996
X149.985Y-119.536
X149.985Y-122.076
X149.985Y-124.616
X149.985Y-127.156
X149.985Y-129.696
X149.985Y-132.236
T3
X132.89Y-72.095
X134.275Y-69.255
X135.66Y-72.095
X137.045Y-69.255
X138.43Y-72.095
X139.815Y-69.255
X141.2Y-72.095
X142.585Y-69.255
X143.97Y-72.095
X153.5Y-126.55
X153.5Y-131.55
X168.0Y-126.55
X168.0Y-129.05
X168.0Y-131.55
T5
X125.93Y-70.675
X150.93Y-70.675
T1
X110.46Y-122.55G85X111.06Y-122.55
G05
X110.46Y-135.55G85X111.06Y-135.55
G05
X111.76Y-126.35G85X111.76Y-125.75
G05
X111.76Y-129.35G85X111.76Y-128.75
G05
X111.76Y-132.35G85X111.76Y-131.75
G05
T4
X161.15Y-123.45G85X159.85Y-123.45
G05
X161.15Y-134.65G85X159.85Y-134.65
G05
M30
